<?xml version="1.0" encoding="utf-8"?>
<!-- Generator: Adobe Illustrator 25.2.1, SVG Export Plug-In . SVG Version: 6.00 Build 0)  -->
<svg version="1.1" id="Camada_1" xmlns="http://www.w3.org/2000/svg" xmlns:xlink="http://www.w3.org/1999/xlink" x="0px" y="0px"
	 viewBox="0 0 144.8 181.8" style="enable-background:new 0 0 144.8 181.8;" xml:space="preserve">
<style type="text/css">
	.st0{fill:#003887;}
	.st1{font-family:'ArialMT';}
	.st2{font-size:21px;}
</style>
<g>
	<g transform="translate(24)">
		<path class="st0" d="M40,1h16c1.1,0,2,0.9,2,2v16c0,1.1-0.9,2-2,2H40c-1.1,0-2-0.9-2-2V3C38,1.9,38.9,1,40,1z"/>
		<path class="st0" d="M64,1h16c1.1,0,2,0.9,2,2v16c0,1.1-0.9,2-2,2H64c-1.1,0-2-0.9-2-2V3C62,1.9,62.9,1,64,1z"/>
		<path class="st0" d="M16,25h16c1.1,0,2,0.9,2,2v16c0,1.1-0.9,2-2,2H16c-1.1,0-2-0.9-2-2V27C14,25.9,14.9,25,16,25z"/>
		<path class="st0" d="M40,25h16c1.1,0,2,0.9,2,2v16c0,1.1-0.9,2-2,2H40c-1.1,0-2-0.9-2-2V27C38,25.9,38.9,25,40,25z"/>
		<path class="st0" d="M16,49h16c1.1,0,2,0.9,2,2v16c0,1.1-0.9,2-2,2H16c-1.1,0-2-0.9-2-2V51C14,49.9,14.9,49,16,49z"/>
		<path class="st0" d="M40,49h16c1.1,0,2,0.9,2,2v16c0,1.1-0.9,2-2,2H40c-1.1,0-2-0.9-2-2V51C38,49.9,38.9,49,40,49z"/>
		<path class="st0" d="M64,49h16c1.1,0,2,0.9,2,2v16c0,1.1-0.9,2-2,2H64c-1.1,0-2-0.9-2-2V51C62,49.9,62.9,49,64,49z"/>
		<path class="st0" d="M16,73h16c1.1,0,2,0.9,2,2v16c0,1.1-0.9,2-2,2H16c-1.1,0-2-0.9-2-2V75C14,73.9,14.9,73,16,73z"/>
		<path class="st0" d="M40,73h16c1.1,0,2,0.9,2,2v16c0,1.1-0.9,2-2,2H40c-1.1,0-2-0.9-2-2V75C38,73.9,38.9,73,40,73z"/>
	</g>
	<circle class="st0" cx="48" cy="11" r="11"/>
	<g transform="translate(24)">
		<path class="st0" d="M-24,127v-20h4.2v20H-24z"/>
		<path class="st0" d="M3,127h-5.4l-8.7-15.1h-0.1c0.2,2.7,0.3,4.6,0.3,5.7v9.4h-3.8v-20h5.3l8.7,15h0.1c-0.1-2.6-0.2-4.4-0.2-5.5
			V107H3V127z"/>
		<path class="st0" d="M19.8,121.4c0,1.8-0.7,3.2-2,4.3c-1.3,1-3.1,1.6-5.4,1.6c-2.1,0-4-0.4-5.7-1.2v-3.9c1.3,0.6,2.5,1,3.4,1.3
			c0.9,0.2,1.8,0.4,2.6,0.4c0.9,0,1.6-0.2,2.1-0.5c0.5-0.4,0.8-0.9,0.8-1.6c0-0.4-0.1-0.7-0.3-1s-0.5-0.6-1-0.9
			c-0.4-0.3-1.3-0.7-2.6-1.4c-1.2-0.6-2.1-1.1-2.7-1.7c-0.6-0.5-1.1-1.1-1.5-1.8c-0.4-0.7-0.5-1.5-0.5-2.5c0-1.8,0.6-3.2,1.8-4.2
			s2.9-1.5,5-1.5c1,0,2,0.1,3,0.4c0.9,0.2,1.9,0.6,3,1l-1.4,3.3c-1.1-0.4-2-0.7-2.7-0.9c-0.7-0.2-1.4-0.3-2.1-0.3
			c-0.8,0-1.4,0.2-1.8,0.6s-0.6,0.9-0.6,1.5c0,0.4,0.1,0.7,0.3,1s0.4,0.5,0.8,0.8c0.4,0.3,1.3,0.7,2.7,1.4c1.9,0.9,3.1,1.8,3.8,2.7
			C19.5,119,19.8,120.1,19.8,121.4L19.8,121.4z"/>
		<path class="st0" d="M31.2,127H27v-16.5h-5.4V107h15.1v3.5h-5.4L31.2,127z"/>
		<path class="st0" d="M39.7,127v-20h4.2v20H39.7z"/>
		<path class="st0" d="M56.7,127h-4.2v-16.5h-5.4V107h15.1v3.5h-5.4L56.7,127z"/>
		<path class="st0" d="M81.5,107v12.9c0,1.5-0.3,2.8-1,3.9s-1.6,2-2.9,2.6c-1.2,0.6-2.7,0.9-4.4,0.9c-2.6,0-4.6-0.7-6-2
			s-2.1-3.1-2.1-5.4V107h4.2v12.2c0,1.5,0.3,2.7,0.9,3.4c0.6,0.7,1.6,1.1,3.1,1.1c1.4,0,2.4-0.4,3-1.1s0.9-1.9,0.9-3.4V107H81.5z"/>
		<path class="st0" d="M94.1,127h-4.2v-16.5h-5.4V107h15.1v3.5h-5.4L94.1,127z"/>
		<path class="st0" d="M120.8,117c0,3.3-0.8,5.9-2.5,7.6c-1.6,1.8-4,2.7-7.1,2.7s-5.4-0.9-7.1-2.7c-1.6-1.8-2.5-4.3-2.5-7.7
			s0.8-5.9,2.5-7.6c1.6-1.8,4-2.6,7.1-2.6s5.4,0.9,7,2.7C120,111.1,120.8,113.7,120.8,117L120.8,117z M106.2,117
			c0,2.2,0.4,3.9,1.3,5c0.8,1.1,2.1,1.7,3.8,1.7c3.4,0,5.1-2.2,5.1-6.7s-1.7-6.8-5-6.8c-1.7,0-3,0.6-3.8,1.7
			C106.6,113.1,106.2,114.7,106.2,117L106.2,117z"/>
	</g>
	<g transform="translate(24)">
		<path class="st0" d="M-5.9,151h-4.2v-20H1.4v3.5h-7.3v5.2h6.8v3.5h-6.8V151z"/>
		<path class="st0" d="M16.8,151H5.3v-20h11.5v3.5H9.6v4.4h6.8v3.5H9.6v5.2h7.3v3.4L16.8,151L16.8,151z"/>
		<path class="st0" d="M37.6,140.8c0,3.3-0.9,5.8-2.8,7.6c-1.9,1.8-4.6,2.6-8.1,2.6H21v-20h6.3c3.3,0,5.8,0.9,7.6,2.6
			C36.7,135.3,37.6,137.7,37.6,140.8L37.6,140.8z M33.2,140.9c0-4.3-1.9-6.4-5.7-6.4h-2.3v13H27C31.1,147.5,33.2,145.3,33.2,140.9
			L33.2,140.9z"/>
		<path class="st0" d="M53.2,151H41.7v-20h11.5v3.5H46v4.4h6.8v3.5H46v5.2h7.3L53.2,151L53.2,151z"/>
		<path class="st0" d="M61.7,139.9H63c1.3,0,2.3-0.2,3-0.7c0.6-0.4,1-1.1,1-2.1c0-0.9-0.3-1.6-1-2c-0.6-0.4-1.7-0.6-3-0.6h-1.3
			V139.9z M61.7,143.3v7.7h-4.2v-20h5.8c2.7,0,4.7,0.5,6,1.5s2,2.5,2,4.5c0,1.2-0.3,2.2-1,3.1c-0.6,0.9-1.6,1.6-2.7,2.1
			c3,4.5,5,7.4,5.9,8.7h-4.7l-4.8-7.7L61.7,143.3z"/>
		<path class="st0" d="M88.1,151l-1.4-4.8h-7.3L78,151h-4.6l7.1-20.1h5.2l7.1,20.1H88.1z M85.7,142.7c-1.3-4.3-2.1-6.7-2.3-7.3
			c-0.2-0.6-0.3-1-0.4-1.3c-0.3,1.2-1.2,4.1-2.6,8.7L85.7,142.7z"/>
		<path class="st0" d="M95.2,151v-20h4.2v16.5h8.1v3.5H95.2z"/>
	</g>
	<text transform="matrix(1 0 0 1 43.3709 175)" class="st0 st1 st2">Ceará</text>
</g>
</svg>
