<?xml version="1.0" encoding="utf-8"?>
<!-- Generator: Adobe Illustrator 25.2.1, SVG Export Plug-In . SVG Version: 6.00 Build 0)  -->
<svg version="1.1" id="Camada_1" xmlns="http://www.w3.org/2000/svg" xmlns:xlink="http://www.w3.org/1999/xlink" x="0px" y="0px"
	 viewBox="0 0 100 50.8" style="enable-background:new 0 0 100 50.8;" xml:space="preserve">
<style type="text/css">
	.st0{fill:#003887;}
</style>
<g>
	<path class="st0" d="M29.8,25.9c0,0.7,0,1.4,0,2.2c0,0.6-0.3,1.1-0.7,1.6c-0.4,0.4-0.8,0.6-1.4,0.8c-0.9,0.4-1.8,0.7-2.8,0.7
		c-0.2,0-0.4,0.1-0.6,0.2c-0.6,0.2-1.3,0.2-2,0.2c-1.8,0-3.6,0.4-5.4,0.2c-1.2-0.2-2.5-0.1-3.7-0.2c-1.3,0-2.5,0.1-3.8,0
		c-1-0.1-2.1,0-3.1-0.2c-1.3-0.2-2.6-0.1-3.9-0.2c-0.5,0-1-0.1-1.5-0.2c-0.3,0-0.6,0-0.9,0c0-0.4-0.2-0.8,0-1.1
		c0.3-0.5,0-1.1,0.3-1.6c-0.1-0.9,0.4-1.8,0.4-2.8c0-0.3,0.1-0.6,0.2-1c0-0.3,0.1-0.6,0.2-1c0.1-0.3,0.2-0.5,0.3-0.7
		c0-0.1,0.2-0.2,0.3-0.2c0.6-0.1,1.1-0.1,1.7-0.2c1.4-0.3,2.9,0,4.3-0.2c1.2-0.2,2.5-0.1,3.7-0.1c1.3,0,2.5-0.1,3.8,0
		c2,0.3,3.9,0.1,5.9,0.1c0.8,0,1.5,0.3,2.3,0.2c0.8-0.1,1.6-0.2,2.3,0c1,0.2,2,0.1,2.9,0.2c0.2,0,0.4,0.1,0.7,0.2
		c0.4,0.2,0.5,0.3,0.4,0.7C29.8,24.4,29.8,25.2,29.8,25.9z"/>
	<path class="st0" d="M14.2,11.2c0.9-0.1,1.8-0.2,2.7-0.2s1.9,0.1,2.8,0c1.5-0.3,3.1,0,4.6-0.2c1.7-0.2,3.3-0.1,5-0.2
		c0.4,0,0.7-0.2,1.1-0.2c0.7,0.1,1.1,0.2,1.2,0.9c0.1,0.5,0.3,1,0.2,1.6c0,0.6,0.2,1.2,0.2,1.8c0,0.4-0.3,0.8-0.2,1.2
		c0.1,0.4-0.1,0.8-0.2,1.2s-0.2,0.9-0.4,1.1c-0.5,0.6-0.6,1.5-1.4,1.7c-0.1,0-0.2,0.1-0.2,0.1c-0.7-0.1-1.3,0.2-2,0.2
		c-0.6,0-1.1,0.1-1.7,0.2c-0.6,0-1.2-0.1-1.7,0c-1.4,0.3-2.8,0.1-4.2,0.2c-0.9-0.3-1.9,0-2.7-0.2c-0.8-0.2-1.7,0-2.5-0.2
		c-1.2-0.2-2.5,0-3.7-0.2c-0.7,0-1.5,0-2.3-0.1c-0.3,0-0.4-0.2-0.5-0.5c0-0.2-0.1-0.3,0-0.5c0.3-0.6,0.2-1.1,0.2-1.7
		c0-1,0.3-2.1,0.2-3.1c0-0.3,0.2-0.7,0.4-0.9c0.4-0.4,0.8-0.9,1.3-1.1c0.2-0.1,0.4-0.3,0.7-0.4c0.7-0.3,1.4-0.6,2.1-0.6
		C13.5,11.1,13.9,11.1,14.2,11.2C14.2,11.1,14.2,11.1,14.2,11.2z"/>
	<path class="st0" d="M78.7,11.4c0,3.1,0,6.1,0,9.2c0,0.5,0.1,0.5-0.5,0.5c-0.8,0-1.6,0-2.4,0c-0.3,0-0.5-0.1-0.7-0.4
		c-0.8-0.9-1.1-2-2-2.9c-0.2-0.7-0.8-1.1-1.1-1.7c-0.3-0.6-0.7-1.1-1-1.6s-0.6-1-1-1.5c-0.5-0.7-1-1.4-1.5-2.1
		c-0.4-0.7-1-1.4-1.4-2.2c-0.1-0.3-0.5-0.6-0.7-0.9l-0.1-0.1c0,0.1-0.1,0.1-0.1,0.2c0,0.3,0,0.5,0,0.8c0,4,0,7.9,0,11.9
		c0,0.5,0,0.5-0.4,0.5c-0.8,0-1.7,0-2.5,0c-0.5,0-0.6-0.1-0.6-0.6c0-0.2,0-0.3,0-0.5c0-5.8,0-11.5,0-17.3c0-0.2,0-0.4,0-0.6
		c0-0.3,0.2-0.4,0.5-0.5c0.9,0,1.8,0,2.6,0c0.4,0,0.6,0.4,0.8,0.7C66.9,2.6,67,3,67.2,3.4c0.2,0.3,0.5,0.6,0.7,0.9s0.4,0.7,0.7,1
		c0.5,0.7,1,1.4,1.5,2.1c0.4,0.7,1.1,1.3,1.3,2.2c0.8,0.8,1.3,1.7,1.8,2.6c0.6,0.9,1.2,1.7,1.7,2.6C75,14.9,75,15,75,15l0.1-0.1
		c0-0.3,0-0.5,0-0.8c0-3.8,0-7.6,0-11.4c0-0.2,0-0.4,0-0.7c0-0.2,0.2-0.4,0.4-0.4c1,0,2,0,3,0c0.1,0,0.2,0.2,0.2,0.2
		c0,0.9,0,1.8,0,2.6C78.7,6.9,78.7,9.1,78.7,11.4z"/>
	<path class="st0" d="M42,11.5c0-0.6,0-1.3,0-1.9c0-0.6,0-1.2,0.2-1.7c0.1-0.4,0.2-0.9,0.4-1.2c0.2-0.4,0.2-0.8,0.5-1.2
		c0.3-0.3,0.5-0.7,0.7-1.1c0.6-0.9,1.4-1.5,2.3-2c0.5-0.3,1.1-0.5,1.7-0.6c0.8-0.2,1.6-0.4,2.5-0.4c1,0,2,0,2.9,0.2
		c1.2,0.3,2.5,0.7,3.4,1.8c0.2,0.3,0.5,0.5,0.7,0.7c0.9,0.9,1.4,2,1.7,3.2c0.1,0.7,0.5,1.3,0.5,2c0.1,0.9,0,1.8,0,2.7
		c0,0.5,0.1,1,0,1.4s0,0.8-0.3,1.2c0,1.1-0.5,2-0.9,2.9c-0.2,0.4-0.5,0.7-0.8,1.1c0,0,0,0.1-0.1,0.2c-0.5,0.2-0.6,0.7-1,1
		c-0.1,0-0.1,0.1-0.2,0.2c-0.2,0.1-0.5,0.3-0.7,0.4c-0.7,0.4-1.5,0.7-2.2,0.9c-0.4,0.1-0.8,0.2-1.2,0.2c-0.9,0-1.8,0-2.7,0
		c-0.4,0-0.9-0.1-1.2-0.2c-0.5-0.2-1-0.2-1.5-0.5c-0.4-0.3-0.9-0.5-1.4-0.8c-0.4-0.3-0.8-0.7-1.2-1.1c-0.5-0.5-1-1.1-1.3-1.8
		c-0.2-0.4-0.4-0.9-0.4-1.3c0-0.1-0.1-0.2-0.1-0.3c-0.3-0.6-0.4-1.2-0.4-1.9C42,12.8,42,12.1,42,11.5z M45.6,11.4c0,0.4,0,0.8,0,1.2
		c-0.1,0.4,0.2,0.8,0.2,1.2c0,0.8,0.4,1.5,0.6,2.3c0.3,0.7,0.9,1.2,1.5,1.6s1.2,0.6,1.8,0.7c1.2,0,2.4,0.2,3.5-0.5
		c1-0.6,1.7-1.4,2-2c0.2-0.3,0.2-0.7,0.3-1.1c0.1-0.4,0.3-0.8,0.3-1.2s0.2-0.8,0.2-1.1c0-0.7,0.1-1.4,0-2.2c-0.1-0.7-0.2-1.3-0.3-2
		c-0.3-1.1-0.7-2.2-1.6-2.9c-0.7-0.5-1.4-1-2.3-0.9c-0.1,0-0.3,0-0.3-0.1c-0.3-0.2-0.8-0.2-1.1-0.1c-0.3,0.2-0.6,0.1-0.9,0.1
		c-0.2,0-0.3,0-0.5,0c-1,0.5-2,1.1-2.6,2.1c-0.6,1.1-0.8,2.2-0.9,3.4C45.5,10.5,45.6,11,45.6,11.4z"/>
	<path class="st0" d="M82.5,11.4c0-3.1,0-6.1,0-9.2c0-0.5,0-0.5,0.4-0.5c3.8,0,7.7,0,11.5,0c0.6,0,0.7,0.1,0.7,0.7s0,1.1,0,1.7
		c0,0.5-0.1,0.6-0.7,0.6c-2.5,0-5,0-7.4,0c-0.3,0-0.7-0.1-0.9,0.1C86,4.9,86,5.3,86,5.6c0,1.2,0,2.4,0,3.6c0,0.6,0,0.6,0.7,0.6
		c2.4,0,4.7,0,7.1,0c0.3,0,0.4,0,0.4,0.3c0,0.8,0,1.5,0,2.3c0,0.3-0.1,0.4-0.4,0.4c-2.3,0-4.5,0-6.8,0c-0.2,0-0.4,0-0.7,0
		C86,12.8,86,13,86,13.2c0,1.6,0,3.1,0,4.7c0,0.3,0.1,0.4,0.4,0.4c2.6,0,5.3,0,7.9,0c0.2,0,0.4,0,0.7,0c0.2,0,0.3,0.1,0.3,0.3
		c0,0.8,0,1.5,0,2.3c0,0.3-0.1,0.3-0.3,0.3c-2.4,0-4.7,0-7.1,0c-1.6,0-3.3,0-4.9,0c-0.5,0-0.5,0-0.5-0.6
		C82.5,17.5,82.5,14.4,82.5,11.4z"/>
	<path class="st0" d="M31.3,4.2c0,0.3,0,0.6,0,0.9c-0.1,1-0.2,2-0.4,2.9c0,0.3-0.2,0.4-0.5,0.4c-1.4,0-2.8,0.3-4.2,0.2
		c-0.1,0-0.2,0-0.3,0c-0.7,0-1.4,0.3-2.2,0.2c-0.7-0.1-1.5-0.1-2.2,0C20.6,9.1,19.9,9,19.1,9C19,9,19,9,18.9,9
		c-0.6,0.5-1.2,0.1-1.6-0.2c-0.5-0.3-0.9-0.8-1.1-1.4c-0.1-0.7-0.2-0.7,0-1.6c0-0.1,0-0.1,0-0.2c0.1-0.7,0.1-1.5,0.2-2.2
		c0-0.3,0.1-0.6,0.2-1c0-0.3,0-0.6,0.2-0.9c0.1-0.1,0-0.4,0-0.6c-0.1-0.7,0-0.9,0.9-0.9c2,0,3.9,0,5.9,0s4.1,0,6.1,0
		c0.2,0,0.5-0.1,0.7,0.1c0.2,0.3,0.4,0.6,0.5,0.9c0.2,0.5,0.3,1,0.4,1.5C31.3,3.1,31.3,3.7,31.3,4.2z"/>
	<path class="st0" d="M82.9,35.5c0-1.4,0-2.6,0-3.8c0-0.5,0-0.9,0-1.4c0-0.4,0.1-0.5,0.5-0.6c0.8,0,0.8,0,0.8,0.7c0,2.3,0,4.6,0,6.8
		c0,0.3,0,0.6-0.3,0.7c-0.3,0.1-0.7,0.2-1-0.2c-0.3-0.5-0.6-0.9-0.9-1.4c-0.9-1.4-1.9-2.7-2.8-4.2c0-0.1-0.1-0.1-0.2-0.1
		c0,0.1-0.1,0.1-0.1,0.2c0,1.5,0,3,0,4.5c0,0.2,0,0.4,0,0.7c0,0.5-0.1,0.6-0.6,0.6s-0.5,0-0.5-0.4c0-2.5,0-4.9,0-7.4
		c0-0.4,0-0.4,0.5-0.4c0.5-0.1,0.9,0.1,1,0.5c0.3,0.8,0.9,1.4,1.4,2.1c0.4,0.6,0.7,1.2,1.1,1.8C82.1,34.5,82.4,34.9,82.9,35.5z"/>
	<path class="st0" d="M43.1,33.6c0-0.5,0-1,0.2-1.6c0.1-0.4,0.3-0.8,0.6-1.1c0.2-0.2,0.3-0.4,0.5-0.5c0.2-0.2,0.4-0.5,0.6-0.5
		c0.5-0.1,1-0.4,1.6-0.4c1.3,0,2.3,0.6,3.1,1.5c0.3,0.3,0.4,0.8,0.5,1.2c0.1,0.9,0.5,1.8,0,2.7c0.1,0.6-0.2,1-0.4,1.5
		c-0.3,0.6-0.9,1-1.4,1.3c-0.3,0.2-0.8,0.3-1.3,0.3c-0.6-0.1-1.3,0-1.9-0.2c-0.9-0.3-1.8-1.5-2-2.2C43.1,34.9,43.1,34.3,43.1,33.6z
		 M49.2,33.8c0-0.1,0-0.2,0-0.4c0-0.7-0.3-1.3-0.5-1.9c-0.2-0.5-0.6-0.4-0.9-0.7c-0.5-0.5-1.1-0.3-1.6-0.2c-0.7,0.1-1.3,0.5-1.5,1.3
		c-0.1,0.4-0.2,0.8-0.2,1.2c0.1,0.8-0.1,1.5,0.2,2.3c0.3,0.9,0.9,1.4,1.9,1.4c0.3,0,0.6,0.1,0.8,0c0.5-0.1,1.1-0.2,1.3-0.9
		C48.9,35.3,49.3,34.4,49.2,33.8z"/>
	<path class="st0" d="M43.3,46.5c0-1.2,0-2.4,0-3.6c0-0.4,0.2-0.6,0.5-0.7c0.1,0,0.3,0,0.4,0c1.2,0,2.3,0,3.5,0
		c0.2,0,0.4-0.1,0.6,0.2c0.1,0.1,0.3,0.1,0.3,0.1c0,0.2,0,0.5,0,0.7c0,0-0.2,0.1-0.3,0.1c-1.1,0-2.1,0-3.2,0c-0.2,0-0.4,0-0.4,0.3
		c0,0.7,0,1.4,0,2.1c0.7,0,1.4,0,2,0.1c0.3,0,0.5,0,0.8,0c0.2,0,0.7,0,0.7,0.1c0.1,0.3,0.1,0.6,0,0.9c0,0.1-0.2,0.1-0.3,0.1
		c-0.9,0-1.9,0-2.8,0c-0.5,0-0.5,0-0.5,0.4c0,0.6,0,1.1,0,1.7c0,0.2,0.1,0.3,0.3,0.3c0.9,0,1.8,0,2.7,0c0.2,0,0.4,0,0.7,0
		c0.2,0,0.3,0.1,0.3,0.3c0,0.9,0,0.9-0.8,0.9c-1.4,0-2.8,0-4.1,0c-0.3,0-0.4-0.1-0.3-0.4C43.3,49,43.3,47.8,43.3,46.5z"/>
	<path class="st0" d="M54.8,46.5c0,1.2,0,2.5,0,3.7c0,0.2-0.1,0.3-0.3,0.3c-0.3,0-0.7,0.1-0.6-0.5c0,0-0.2-0.1-0.3-0.1
		c-0.2,0.1-0.4,0.3-0.7,0.4c-1,0.5-1.6,0.3-2.5-0.3c-0.8-0.5-1-1.4-1.1-2.3c-0.1-0.6,0.1-1.2,0.2-1.7c0.3-1.1,1.7-2,3-1.6
		c0.3,0.1,0.6,0.2,0.8,0.3c0-0.3,0.1-0.6,0.1-0.9c0-0.5,0-0.9,0-1.4c0-0.4,0.2-0.5,0.7-0.5s0.6,0.1,0.6,0.6
		C54.8,43.9,54.8,45.2,54.8,46.5z M53.5,47.6c0-0.4,0-0.8,0-1.2c0-0.1,0-0.3-0.1-0.3c-0.4-0.3-0.8-0.6-1.3-0.6
		c-0.3,0.1-0.7,0.2-0.9,0.4c-0.2,0.3-0.4,0.7-0.4,1c-0.1,0.5-0.1,0.9,0,1.4s0.2,1,0.7,1.2c0.6,0.2,1.2,0.2,1.7-0.2
		c0.3-0.2,0.4-0.4,0.4-0.8C53.5,48.2,53.5,47.9,53.5,47.6z"/>
	<path class="st0" d="M88.5,35.3c-0.5,0-1.1,0-1.6,0c-0.3,0-0.3,0.1-0.3,0.3c0.1,0.3,0.1,0.6,0.3,0.8c0.2,0.3,0.5,0.4,0.9,0.4
		c0.2,0,0.5,0.2,0.6,0.1c0.2-0.1,0.4-0.1,0.6-0.1s0.5,0,0.7-0.2s0.4,0,0.4,0.3c0,0.6-0.1,0.8-0.8,0.9c-0.7,0.1-1.5,0.1-2.2,0
		s-1.1-0.6-1.5-1.3c-0.2-0.5-0.4-0.9-0.4-1.4c0-0.3,0-0.6,0-0.8c0-0.7,0.3-1.2,0.7-1.7c0.3-0.4,0.7-0.7,1.3-0.8
		c0.5-0.1,0.9-0.2,1.4,0.1c1.2-0.1,1.4,0.9,1.7,1.6c0.1,0.2,0.1,0.6,0.2,0.9c0.1,0.2,0,0.5-0.2,0.7c-0.1,0.1-0.1,0.2-0.3,0.2
		C89.6,35.3,89,35.3,88.5,35.3z M87.8,34.2c0.4,0,0.7,0,1.1,0c0.2,0,0.4-0.2,0.3-0.4c-0.1-0.3-0.3-0.5-0.5-0.7s-0.6-0.3-0.9-0.4
		c-0.4,0.3-1,0.3-1.2,0.9c-0.2,0.5-0.1,0.6,0.4,0.6C87.4,34.2,87.6,34.2,87.8,34.2z"/>
	<path class="st0" d="M71.7,38c-0.3,0-0.6,0-1-0.1c-0.8-0.2-1.5-1.1-1.8-1.9c-0.2-0.5-0.2-1-0.2-1.5c0-1,0.5-1.8,1.3-2.3
		c1-0.6,1.9-0.5,2.9,0c0.5,0.3,0.6,0.8,0.9,1.3c0.1,0.2,0.2,0.4,0.2,0.6c0,0.2,0,0.5,0,0.7c0,0.4-0.1,0.5-0.6,0.5c-1,0-2,0-3,0
		c-0.4,0-0.4,0-0.4,0.4c0,0.2,0.4,0.8,0.6,0.9c0.4,0.2,0.9,0.3,1.5,0.2c0.3,0,0.6,0.1,0.8,0c0.3-0.1,0.5-0.4,0.7,0
		c0.2,0.6,0,0.8-0.5,1C72.7,38,72.2,37.9,71.7,38z M71.3,34.2c0.3,0,0.6,0,0.9,0c0.5,0,0.6-0.2,0.5-0.6c-0.1-0.4-0.9-1-1.3-0.9
		c-0.5,0.2-1,0.2-1.2,0.8s-0.2,0.6,0.3,0.6C70.8,34.2,71,34.2,71.3,34.2z"/>
	<path class="st0" d="M59.9,35.5c0,0.6,0,1.2,0,1.9c0,0.4-0.1,0.6-0.4,0.6c-0.3,0-0.5-0.1-0.5-0.5c0-0.3-0.1-0.3-0.3-0.1
		C58,38,57.1,38,56.3,38c-0.6-0.1-1.3-1-1.3-1.7c0-1.3,0.5-1.8,1.7-2.1c0.5-0.1,0.9-0.1,1.3-0.2c0.2,0,0.5,0,0.5-0.1
		c0.1-0.2,0-0.5,0-0.7c0,0-0.1-0.1-0.2-0.1c-0.6-0.5-1.2-0.2-1.8-0.1c-0.1,0-0.2,0.1-0.3,0.1c-0.6,0.1-0.9-0.2-0.7-0.8
		c0.1-0.2,0.3-0.3,0.5-0.3c0.5,0.1,0.9-0.2,1.3-0.2c0.4,0,0.9,0.1,1.3,0.2c0.5,0.1,1.2,1,1.2,1.6C59.9,34.2,59.9,34.8,59.9,35.5z
		 M57.6,35.2c-0.1,0-0.2,0-0.3,0c-1.2-0.1-1,0.2-1,1.1c0,0.5,0.6,0.9,1,0.8c0.4-0.2,0.8-0.2,1.1-0.6c0.3-0.4,0.3-0.8,0.2-1.1
		s-0.5-0.1-0.7-0.1C57.8,35.1,57.7,35.2,57.6,35.2z"/>
	<path class="st0" d="M72.5,48.4c0,0.6,0,1.3,0,1.9c0,0.2-0.1,0.3-0.3,0.3c-0.2,0-0.3,0-0.5,0c-0.1,0-0.1-0.1-0.2-0.2
		c-0.1-0.1-0.1-0.3-0.1-0.4c-0.1,0.1-0.2,0.2-0.4,0.2c-0.7,0.4-1.5,0.7-2.3,0.4c-0.6-0.3-1.1-0.8-1.1-1.4c0-0.4,0-0.9,0.1-1.3
		c0.1-0.4,0.8-0.8,1.2-0.9c0.7-0.2,1.3-0.2,2-0.2c0.3,0,0.3-0.1,0.3-0.3c0-0.6-0.4-0.9-1-1c-0.4,0-0.8,0.2-1.2,0.2
		c-0.2,0-0.3,0.1-0.5,0.1c-0.5,0-0.5,0-0.5-0.5c0-0.3,0.2-0.6,0.5-0.6c0.7,0,1.3-0.3,2-0.2c1.3,0.1,2,0.8,2,2.1
		C72.5,47.2,72.5,47.8,72.5,48.4z M70.5,47.7L70.5,47.7c-0.4,0-0.8,0.1-1.1,0.2c-0.5,0.2-0.8,0.5-0.5,1.1c0.2,0.4,0.4,0.6,0.9,0.6
		c0.1,0,0.2,0,0.3,0c0.5,0,1.1-0.4,1.2-0.9c0.1-0.3,0-0.6,0-0.8c0-0.1-0.1-0.2-0.2-0.2C70.8,47.7,70.6,47.7,70.5,47.7z"/>
	<path class="st0" d="M80,47.5c0-0.4-0.1-0.9,0.2-1.3c0-0.8,0.7-1.2,1.2-1.4c0.6-0.3,1.4-0.4,2.1-0.2s1.3,0.5,1.7,1.1
		c0.1,0.1,0.1,0.3,0.1,0.5c0.5,1.4,0.4,2-0.3,3.4c-0.1,0.2-0.2,0.4-0.4,0.5c-1.1,0.9-2.8,0.9-4,0c-0.5-0.4-0.6-1-0.7-1.6
		C80,48.2,80,47.9,80,47.5z M84.4,47.7c0-0.3,0-0.5,0-0.7c0-0.7-0.9-1.5-1.6-1.5c-0.3,0-0.7,0.1-0.9,0.3c-0.3,0.2-0.7,0.4-0.6,0.9
		c-0.4,0.5-0.1,1-0.2,1.5c0.4,0.2,0.1,0.7,0.4,1c0.6,0.5,1.3,0.3,1.9,0.4c0.1,0,0.1-0.1,0.2-0.2C84.3,49,84.4,48.3,84.4,47.7z"/>
	<path class="st0" d="M86.6,47.7c0-0.8,0-1.7,0-2.5c0-0.4,0.1-0.4,0.4-0.4s0.5-0.1,0.6,0.4c0,0.2,0.2,0.2,0.4,0
		c0.8-0.6,1.7-0.8,2.7-0.4c0.5,0.2,0.9,0.5,1,1.2c0,0.3,0.2,0.5,0.2,0.8c0,1.2,0,2.4,0,3.7c0,0.1-0.1,0.2-0.2,0.2
		c-1.1,0.1-1.1,0.1-1.1-1c0-0.9,0-1.8,0-2.7c0-1-0.8-1.4-1.7-1c-0.6,0.3-1,0.6-0.9,1.4c0.1,1,0,2.1,0,3.1c0,0.1,0,0.2-0.1,0.2
		c-0.4,0-0.8,0-1.2,0l-0.1-0.2C86.6,49.4,86.6,48.5,86.6,47.7z"/>
	<path class="st0" d="M61.2,47.6c0,0.8,0,1.6,0,2.4c0,0.2,0.1,0.4-0.1,0.5c-0.2,0-0.4,0-0.6-0.1c0,0,0,0-0.1-0.1
		c-0.3-0.2-0.4-0.3-0.7-0.1s-0.5,0.3-0.8,0.5c-1.2,0.4-2.7-0.7-2.8-1.9c0-1.2,0-2.5,0-3.7c0-0.3,0.1-0.3,0.3-0.3s0.4,0,0.6,0
		c0.2,0,0.3,0.1,0.3,0.3c0,0.9,0,1.7,0,2.6c0,0.4,0,0.8,0.2,1.1c0.1,0.3,0.2,0.6,0.5,0.7c0.4,0.2,0.8,0.2,1.2,0
		c0.6-0.3,0.9-0.7,0.9-1.4c0-1,0-2,0-3c0-0.3,0-0.4,0.3-0.4c0.2,0,0.3,0,0.5,0c0.3,0,0.3,0.1,0.3,0.4C61.2,46,61.2,46.8,61.2,47.6z"
		/>
	<path class="st0" d="M91.6,32c0.4-0.1,0.7,0,0.9,0.5c0.1,0.2,0.3,0.4,0.5,0.6c0.2,0.2,0.4,0.6,0.6,0.6s0.4-0.3,0.5-0.6
		c0.1-0.2,0.3-0.4,0.5-0.6c0.3-0.5,0.9-0.7,1.4-0.5c0,0,0.1,0.2,0,0.3c-0.1,0.3-0.5,0.4-0.5,0.7c-0.5,0.4-0.6,1.2-1.2,1.6
		c-0.2,0.1-0.1,0.3,0,0.5c0.5,0.6,0.9,1.3,1.4,2c0.1,0.1,0.1,0.3,0.2,0.4c0.3,0.5,0.2,0.6-0.4,0.6c-0.5,0-0.8-0.1-1-0.6
		c-0.3-0.5-0.6-1.1-0.9-1.6c0-0.1-0.2,0-0.3,0L93.2,36c-0.2,0.6-0.8,1-1.1,1.5c-0.1,0.2-0.2,0.3-0.3,0.4c0,0.1-0.7,0.1-0.8,0
		c-0.1-0.2,0-0.5,0.2-0.7c0.1-0.1,0.1-0.2,0.2-0.3c0.7-0.5,0.8-1.4,1.5-2c0.1-0.1,0-0.3-0.1-0.4c-0.7-0.7-1-1.6-1.7-2.3
		c0,0,0.1-0.2,0.1-0.3C91.2,31.9,91.4,32,91.6,32z"/>
	<path class="st0" d="M65.3,49.7c0.5-0.1,0.9-0.2,1.4-0.2c0.3,0,0.5,0.2,0.3,0.4c-0.2,0.3-0.3,0.8-0.9,0.7c-0.3,0.3-0.8,0.2-1.1,0.2
		c-1.1,0-2.4-0.9-2.6-2c-0.1-0.4,0-0.9,0-1.4c-0.2-1.7,1.8-3.4,3.7-2.7c0.1,0,0.2,0,0.3,0c0.5,0.1,0.6,0.1,0.6,0.6
		c0,0.6,0,0.6-0.6,0.4c-0.5-0.1-0.9-0.5-1.4-0.1c-0.9,0.1-1.1,0.8-1.3,1.5c-0.2,0.6,0,1.3,0.4,1.8C64.2,49.5,64.6,49.8,65.3,49.7z"
		/>
	<path class="st0" d="M61,34.8c0-0.5-0.1-1.1,0.2-1.7c0.4-0.6,0.8-1.2,1.7-1.2c0.6-0.5,1.3,0,1.9,0c0.5,0,0.6,0.2,0.5,0.7
		c0,0.4,0,0.4-0.4,0.4c-0.2,0-0.4-0.1-0.6-0.2c-0.6-0.3-1.1,0-1.5,0.2c-0.5,0.2-0.5,0.8-0.6,1.2c-0.1,0.3,0,0.6,0,0.9
		c0,0.6,0.3,1.2,0.7,1.4c0.5,0.2,1,0.6,1.5,0.2c0.3,0.1,0.6-0.1,0.9-0.2c0.2-0.1,0.4,0,0.3,0.3s-0.1,0.5-0.2,0.8
		c-0.1,0.2-0.5-0.1-0.6,0.3c-0.7-0.1-1.4,0.2-2.1-0.2c-0.7,0.1-0.9-0.5-1.2-1C60.9,36.2,61,35.5,61,34.8z"/>
	<path class="st0" d="M67.8,33.6c0,1.1,0,2.2,0,3.3c0,0.2,0,0.4,0,0.6c-0.1,0.2-0.2,0.5-0.3,0.5c-0.2,0.1-0.5,0-0.8-0.1
		c-0.1,0-0.2-0.2-0.2-0.3c0-0.2,0-0.4,0-0.6c0-2.1,0-4.1,0-6.2c0-0.3,0-0.7-0.4-0.8c-0.1,0-0.2-0.3-0.1-0.4s0.2-0.3,0.4-0.3
		c0.4,0,0.8,0,1.1,0c0.1,0,0.1,0.2,0.2,0.2c0.2,0.2,0.2,0.5,0.2,0.8C67.8,31.4,67.8,32.5,67.8,33.6z"/>
	<path class="st0" d="M74,47.7c0-0.6,0-1.1,0-1.7c0-0.3-0.1-0.3-0.3-0.3c-0.1,0-0.3,0-0.4,0c-0.2-0.1-0.4-0.2-0.4-0.3
		s0.1-0.3,0.2-0.4c0-0.1,0.2,0,0.2-0.1c0.1-0.3,0.7,0.1,0.6-0.5c0-0.2,0.1-0.5,0.2-0.8c0-0.2,0-0.4,0.2-0.5s0.4-0.1,0.6-0.1
		c0.3,0,0.1,0.3,0.1,0.5c0,0.4,0,0.7,0,1.1c0.4,0,0.7,0.1,1.1,0.1c0.1,0,0.2,0.1,0.2,0.2c0.1,0.5-0.1,0.7-0.6,0.7
		c-0.2,0-0.3,0-0.5,0c-0.1,0-0.2,0.1-0.2,0.2c0,0.9,0,1.9,0,2.8c0,0.2,0.1,0.6,0.3,0.7c0.1,0.1,0.4,0.5,0.7,0.1
		c0.1,0.1,0.3,0.2,0.3,0.3c0.1,0.2,0,0.4,0,0.6c0,0.2-0.1,0.3-0.3,0.3c-0.3,0-0.6,0-0.8,0c-0.9,0-1.3-0.5-1.3-1.4
		C74,48.7,74,48.2,74,47.7z"/>
	<path class="st0" d="M97.5,34.9c0-0.5,0-0.9,0-1.4s-0.1-0.6-0.6-0.6c-0.2,0-0.4,0-0.4-0.3c0-0.2-0.1-0.5,0.3-0.5
		c0.6-0.1,0.8-0.4,0.8-1c0-0.5,0.1-0.6,0.7-0.6c0.2,0,0.3,0,0.3,0.2c0,0.1,0,0.1,0,0.2c0.1,0.3-0.2,0.7,0.2,1
		c0.3,0.2,0.6,0.1,0.9,0.1c0.2,0,0.3,0.1,0.3,0.3s0,0.3,0,0.5c0,0.1-0.1,0.2-0.2,0.2s-0.2,0-0.4,0c-0.7,0-0.7,0.1-0.7,0.8
		s0,1.4,0,2.1c0,0.2,0,0.3,0,0.5c0.1,0.4,0.4,0.6,0.9,0.6c0.3,0,0.4,0,0.4,0.4c0,1,0.1,0.8-0.8,0.8c-1.1,0-1.6-0.6-1.7-1.6
		C97.5,35.9,97.5,35.4,97.5,34.9z"/>
	<path class="st0" d="M52.6,32.8c0.5-0.6,1-0.9,1.7-0.9c0.4,0,0.4,0.2,0.4,0.5c0,0.5-0.1,0.7-0.5,0.7s-0.7,0.2-1,0.5
		c-0.1,0.1-0.4,0.9-0.4,1.1c0,1,0,2,0,3c0,0.3-0.1,0.3-0.4,0.3c-0.6,0-0.7-0.1-0.7-0.7c0-1.6,0-3.1,0-4.7c0-0.6,0-0.6,0.7-0.6
		c0.2,0,0.3,0.1,0.3,0.3C52.5,32.4,52.6,32.5,52.6,32.8z"/>
	<path class="st0" d="M78.9,47.6c0,0.8,0,1.7,0,2.5c0,0.4-0.1,0.4-0.4,0.4c-0.2,0-0.3,0-0.5,0s-0.2-0.1-0.2-0.3c0-1.4,0-2.8,0-4.2
		c0-0.3,0-0.6-0.4-0.7c-0.1,0-0.1-0.1-0.2-0.2c-0.1-0.1-0.1-0.2-0.1-0.2c0.1-0.1,0.2-0.2,0.3-0.2c0.5,0,0.9,0,1.4,0
		c0.1,0,0.2,0.2,0.2,0.3c0,0.3,0,0.6,0,0.9C78.9,46.5,78.9,47.1,78.9,47.6z"/>
</g>
</svg>
