<svg id="Camada_1" data-name="Camada 1" xmlns="http://www.w3.org/2000/svg" viewBox="0 0 399.9 233.91"><defs><style>.cls-1{fill:#c10b1c;}</style></defs><path class="cls-1" d="M0,217.72c4.27-4.19,8.65-8.27,12.77-12.61,1.86-2,3.18-2,5.38-.49,7.47,5.19,15.62,8.81,24.8,9.72,5.54.56,11,.34,16.22-1.73,3.31-1.3,5.59-3.62,5.68-7.44s-2-6.13-5.37-7.61c-6.75-3-14-4.11-21.11-5.8s-14.24-3.43-20.73-6.95a24.68,24.68,0,0,1-6.12-39C18.92,138,28.61,135.17,38.88,134a80.15,80.15,0,0,1,19.92.77c2.11.3,2.84,1.19,2.81,3.22-.07,4.82-.15,9.66,0,14.48.11,2.8-1,3-3.24,2.27a44.27,44.27,0,0,0-15.77-2,20.55,20.55,0,0,0-6.78,1.49c-3.1,1.28-5.45,3.35-5.58,7S32,167.44,35.42,169c5.36,2.39,11.11,3.38,16.74,4.77,3.71.93,7.43,1.79,11.12,2.8,8.72,2.38,17,5.6,23.67,13.43.53-11.57,3.9-21.23,11.52-29.05a43.19,43.19,0,0,1,27.38-13c24.51-2.47,37.84,6.16,48.66,31.4,2.1-11.19,7.3-20,17.23-25.48,9.58-5.3,20-6,30.57-4.91,11.19,1.13,20.82,5.5,27.54,15.06s6.54,20.3,6.45,31.08c.59.11,1.11.28,1.15.2,5.08-9.82,14.12-13,24.18-14.54,9.66-1.52,19.29-.44,28.9.32,3.47.27,3.58-.91,2.73-3.6-2.25-7.06-7.94-8.88-14.34-9.6-6.87-.77-6.88-.71-6.88-7.75v-4c0-8.3,0-8.4,8.11-8.08a75.2,75.2,0,0,1,11.41,1.18c14,2.72,23.67,10.19,26.37,25.39,11.54-28.16,34.14-36.8,61.83-36.77v19a40.7,40.7,0,0,0-11.37,1c-12.71,3.13-21.89,13.69-22.5,26-.65,12.95,7.1,23.74,20.15,28.13a34.61,34.61,0,0,0,13.72,1.8c0,5.33-.27,10.67.1,16,.24,3.46-.66,4.68-4.1,4a22.12,22.12,0,0,0-4,0c-.29-1-1.19-.93-2-1-22.42-2.6-40.64-11.64-50.88-33.25-.32,8.67-.43,17.24-.27,25.79.06,2.81-.73,3.85-3.63,3.71-4.49-.22-9-.06-13.49-.06-7.48,0-7.48,0-7.86-7.31,0-.2-.42-.38-.88-.77-8.42,7.49-18.61,9.67-29.6,8.94-11.24-.75-20.7-4.84-26.95-16.47,0,5.24-.12,8.89,0,12.52.11,2.44-.83,3.13-3.17,3.09-6.16-.13-12.33-.27-18.48,0-3.54.18-4-1.27-4-4.29.14-12.32.05-24.63.06-37A27.8,27.8,0,0,0,229,177.41c-2.49-6.42-7.43-9.72-14.28-9.52s-11.6,3.88-13.59,10.47a31.62,31.62,0,0,0-1.23,9.35c.06,12.49,0,25,.08,37.45,0,2.65-.48,3.84-3.49,3.73-6.32-.22-12.66-.21-19,0-2.9.09-3.65-.88-3.59-3.68.17-8.32-.06-16.64.12-25,.06-2.84-.82-3.61-3.62-3.59q-27.22.18-54.45,0c-3,0-3.32.81-2.19,3.4,2.76,6.33,7.74,9.66,14.16,11.52,3.42,1,8.34-1.5,10,1.84,1.56,3.06.43,7.49.48,11.31a14.82,14.82,0,0,0,0,2c.4,2.92-1,3.76-3.74,3.68-18.16-.56-33.62-6.13-43.22-22.85-.22-.37-.74-.57-1.18-.91-2,13.39-10.81,20.16-22.63,23.94-4.15,1.33-8.48,2.09-12.72,3.1H37c-1.14-1.91-3.25-1.31-4.86-1.62a85.86,85.86,0,0,1-21.46-7.38C7,222.91,4,219.88,0,218.72ZM294.71,214c1.5-.09,3-.08,4.48-.3,8.52-1.23,14.79-7.6,14.81-15,0-1.46.39-3.26-1.81-3.44-9.28-.77-18.69-1.89-27.55,2-6.23,2.74-6.58,10.2-.92,14C287,213.57,290.82,214,294.71,214ZM150.33,182.66c-1-9.81-7.4-16.22-16.63-16.86-10-.68-18.33,4.9-20.62,13.64-.59,2.27-.32,3.3,2.42,3.27C126.94,182.59,138.39,182.66,150.33,182.66Z"/><path class="cls-1" d="M254.85,0c8,2,15.94,3.86,23.84,6A217.63,217.63,0,0,1,336,31c1.13.7,2.24,1.43,3.33,2.2.21.15.26.53.69,1.46A247.52,247.52,0,0,0,223.54,23.8c8.15-9.43,17.38-16.45,26.31-23.8Z"/><path class="cls-1" d="M368,52.17A259.38,259.38,0,0,0,277.16,67.9a241.88,241.88,0,0,0-58.7,31c-2.88,2.08-4.64,1.95-7.27-.16C204,93,197,87.25,190.26,81c-2.09-2-2.75-3.56-1.44-6.38a193.35,193.35,0,0,1,17.84-31A8.88,8.88,0,0,1,212.25,40a255.39,255.39,0,0,1,83.07-6.1,235.8,235.8,0,0,1,69.2,16.77C365.7,51.11,366.85,51.66,368,52.17Z"/><path class="cls-1" d="M182.17,80.79c8,6.78,15.53,14,24.14,20,2.55,1.78,2,2.66-.12,4.23a242.78,242.78,0,0,0-37.32,35c.43-21.24,3.8-40.67,12-59.16Z"/><path class="cls-1" d="M182.17,80.79l-1.28.11c.83-1.69-.7-2.25-1.53-3.09A215.37,215.37,0,0,1,161,57c13-6,25.88-11.18,39.71-14.39.33,2.77-1.34,4-2.31,5.38A175.43,175.43,0,0,0,182.9,75.74C182.2,77.32,180.86,78.89,182.17,80.79Z"/></svg>