<?xml version="1.0" encoding="utf-8"?>
<!-- Generator: Adobe Illustrator 25.2.1, SVG Export Plug-In . SVG Version: 6.00 Build 0)  -->
<svg version="1.1" id="Camada_1" xmlns="http://www.w3.org/2000/svg" xmlns:xlink="http://www.w3.org/1999/xlink" x="0px" y="0px"
	 viewBox="0 0 399.9 233.9" style="enable-background:new 0 0 399.9 233.9;" xml:space="preserve">
<style type="text/css">
	.st0{fill:#003887;}
</style>
<path class="st0" d="M0,217.7c4.3-4.2,8.6-8.3,12.8-12.6c1.9-2,3.2-2,5.4-0.5c7.5,5.2,15.6,8.8,24.8,9.7c5.5,0.6,11,0.3,16.2-1.7
	c3.3-1.3,5.6-3.6,5.7-7.4s-2-6.1-5.4-7.6c-6.8-3-14-4.1-21.1-5.8s-14.2-3.4-20.7-6.9c-12-6.4-16.6-21.3-10.2-33.4
	c1.1-2.1,2.5-4,4.1-5.6c7.4-7.8,17.1-10.6,27.4-11.8c6.6-0.6,13.3-0.3,19.9,0.8c2.1,0.3,2.8,1.2,2.8,3.2c-0.1,4.8-0.2,9.7,0,14.5
	c0.1,2.8-1,3-3.2,2.3c-5.1-1.6-10.4-2.3-15.8-2c-2.3,0.1-4.6,0.6-6.8,1.5c-3.1,1.3-5.5,3.4-5.6,7s1.8,6.2,5.2,7.8
	c5.4,2.4,11.1,3.4,16.7,4.8c3.7,0.9,7.4,1.8,11.1,2.8c8.7,2.4,17,5.6,23.7,13.4c0.5-11.6,3.9-21.2,11.5-29.1
	c7.3-7.5,17-12.1,27.4-13c24.5-2.5,37.8,6.2,48.7,31.4c2.1-11.2,7.3-20,17.2-25.5c9.6-5.3,20-6,30.6-4.9
	c11.2,1.1,20.8,5.5,27.5,15.1s6.5,20.3,6.5,31.1c0.6,0.1,1.1,0.3,1.1,0.2c5.1-9.8,14.1-13,24.2-14.5c9.7-1.5,19.3-0.4,28.9,0.3
	c3.5,0.3,3.6-0.9,2.7-3.6c-2.2-7.1-7.9-8.9-14.3-9.6c-6.9-0.8-6.9-0.7-6.9-7.8v-4c0-8.3,0-8.4,8.1-8.1c3.8,0.1,7.6,0.5,11.4,1.2
	c14,2.7,23.7,10.2,26.4,25.4c11.5-28.2,34.1-36.8,61.8-36.8v19c-3.8-0.2-7.6,0.1-11.4,1c-12.7,3.1-21.9,13.7-22.5,26
	c-0.6,12.9,7.1,23.7,20.1,28.1c4.4,1.5,9.1,2.1,13.7,1.8c0,5.3-0.3,10.7,0.1,16c0.2,3.5-0.7,4.7-4.1,4c-1.3-0.1-2.7-0.1-4,0
	c-0.3-1-1.2-0.9-2-1c-22.4-2.6-40.6-11.6-50.9-33.2c-0.3,8.7-0.4,17.2-0.3,25.8c0.1,2.8-0.7,3.9-3.6,3.7c-4.5-0.2-9-0.1-13.5-0.1
	c-7.5,0-7.5,0-7.9-7.3c0-0.2-0.4-0.4-0.9-0.8c-8.4,7.5-18.6,9.7-29.6,8.9c-11.2-0.8-20.7-4.8-27-16.5c0,5.2-0.1,8.9,0,12.5
	c0.1,2.4-0.8,3.1-3.2,3.1c-6.2-0.1-12.3-0.3-18.5,0c-3.5,0.2-4-1.3-4-4.3c0.1-12.3,0.1-24.6,0.1-37c0.1-3.5-0.4-7-1.6-10.3
	c-2.5-6.4-7.4-9.7-14.3-9.5s-11.6,3.9-13.6,10.5c-0.9,3-1.3,6.2-1.2,9.4c0.1,12.5,0,25,0.1,37.4c0,2.6-0.5,3.8-3.5,3.7
	c-6.3-0.2-12.7-0.2-19,0c-2.9,0.1-3.6-0.9-3.6-3.7c0.2-8.3-0.1-16.6,0.1-25c0.1-2.8-0.8-3.6-3.6-3.6c-18.1,0.1-36.3,0.1-54.4,0
	c-3,0-3.3,0.8-2.2,3.4c2.8,6.3,7.7,9.7,14.2,11.5c3.4,1,8.3-1.5,10,1.8c1.6,3.1,0.4,7.5,0.5,11.3c0,0.7,0,1.3,0,2
	c0.4,2.9-1,3.8-3.7,3.7c-18.2-0.6-33.6-6.1-43.2-22.9c-0.2-0.4-0.7-0.6-1.2-0.9c-2,13.4-10.8,20.2-22.6,23.9
	c-4.2,1.3-8.5,2.1-12.7,3.1H37c-1.1-1.9-3.2-1.3-4.9-1.6c-7.4-1.5-14.7-4-21.5-7.4C7,222.9,4,219.9,0,218.7V217.7z M294.7,214
	c1.5-0.1,3-0.1,4.5-0.3c8.5-1.2,14.8-7.6,14.8-15c0-1.5,0.4-3.3-1.8-3.4c-9.3-0.8-18.7-1.9-27.5,2c-6.2,2.7-6.6,10.2-0.9,14
	C287,213.6,290.8,214,294.7,214z M150.3,182.7c-1-9.8-7.4-16.2-16.6-16.9c-10-0.7-18.3,4.9-20.6,13.6c-0.6,2.3-0.3,3.3,2.4,3.3
	C126.9,182.6,138.4,182.7,150.3,182.7z"/>
<path class="st0" d="M254.9,0c8,2,15.9,3.9,23.8,6c20.2,5.5,39.5,14,57.3,25c1.1,0.7,2.2,1.4,3.3,2.2c0.2,0.2,0.3,0.5,0.7,1.5
	c-37.4-12.9-77.3-16.6-116.5-10.9c8.1-9.4,17.4-16.5,26.3-23.8H254.9z"/>
<path class="st0" d="M368,52.2c-31-0.2-61.7,5.1-90.8,15.7c-20.9,7.6-40.7,18-58.7,31c-2.9,2.1-4.6,1.9-7.3-0.2
	C204,93,197,87.2,190.3,81c-2.1-2-2.8-3.6-1.4-6.4c5-10.9,10.9-21.2,17.8-31c1.3-1.9,3.3-3.2,5.6-3.6c27.2-6.6,55.2-8.6,83.1-6.1
	c23.8,2.1,47.1,7.7,69.2,16.8C365.7,51.1,366.9,51.7,368,52.2z"/>
<path class="st0" d="M182.2,80.8c8,6.8,15.5,14,24.1,20c2.6,1.8,2,2.7-0.1,4.2c-13.6,10.3-26.1,22.1-37.3,35
	c0.4-21.2,3.8-40.7,12-59.2L182.2,80.8z"/>
<path class="st0" d="M182.2,80.8l-1.3,0.1c0.8-1.7-0.7-2.2-1.5-3.1c-6.6-6.5-12.7-13.5-18.4-20.8c13-6,25.9-11.2,39.7-14.4
	c0.3,2.8-1.3,4-2.3,5.4c-6,8.8-11.2,18.1-15.5,27.7C182.2,77.3,180.9,78.9,182.2,80.8z"/>
</svg>
