<svg width="27" height="27" viewBox="0 0 27 27" fill="none" xmlns="http://www.w3.org/2000/svg">
<g clip-path="url(#clip0_33326_48)">
<path d="M4.8 0H22.2C24.9 0 27 2.1 27 4.8V21.6C27 24.2 24.9 26.4 22.2 26.4H4.8C2.2 26.4 0 24.3 0 21.6V4.8C0 2.1 2.1 0 4.8 0Z" fill="#C10B1C"/>
<path d="M12.6 15.4H8.39999L7.49999 18C7.49999 18.1 7.39999 18.2 7.29999 18.2H5.29999C5.19999 18.2 5.09999 18.1 5.19999 18L8.79999 7.60002C8.79999 7.50002 8.89999 7.40002 8.89999 7.20002C8.89999 7.00002 8.99999 6.70002 8.99999 6.50002C8.99999 6.40002 8.99999 6.40002 9.09999 6.40002H12C12.1 6.40002 12.1 6.40002 12.1 6.50002L16.2 18.1C16.2 18.2 16.2 18.3 16.1 18.3H13.7C13.6 18.3 13.5 18.3 13.5 18.2L12.6 15.4ZM9.09999 13.2H12C11.9 13 11.8 12.7 11.7 12.4C11.6 12.1 11.5 11.8 11.4 11.4C11.3 11.1 11.2 10.7 11.1 10.4C11 10.1 10.9 9.70002 10.8 9.40002C10.7 9.10002 10.6 8.80002 10.6 8.50002C10.5 9.00002 10.4 9.50002 10.2 10C9.99999 10.5 9.89999 11.1 9.69999 11.7C9.39999 12.2 9.29999 12.7 9.09999 13.2Z" fill="white"/>
<path d="M18.7 8.3C18.3 8.3 18 8.2 17.7 7.9C17.4 7.6 17.3 7.2 17.3 6.9C17.3 6.5 17.4 6.2 17.7 5.9C18 5.6 18.3 5.5 18.7 5.5C19.1 5.5 19.5 5.6 19.7 5.9C19.9 6.2 20.1 6.5 20.1 6.9C20.1 7.3 20 7.7 19.7 7.9C19.4 8.2 19 8.3 18.7 8.3ZM17.4 18.1V9.4C17.4 9.3 17.4 9.2 17.5 9.2H19.7C19.8 9.2 19.8 9.3 19.8 9.4V18.1C19.8 18.2 19.8 18.3 19.7 18.3H17.5C17.4 18.3 17.4 18.2 17.4 18.1Z" fill="white"/>
</g>
<defs>
<clipPath id="clip0_33326_48">
<rect width="27" height="26.3" fill="white"/>
</clipPath>
</defs>
</svg>
