<svg width="29" height="28" viewBox="0 0 29 28" fill="none" xmlns="http://www.w3.org/2000/svg">
<path d="M25.6848 0C27.3098 0 28.6848 1.375 28.6848 3V25C28.6848 26.6875 27.3098 28 25.6848 28H3.68481C1.99731 28 0.684814 26.6875 0.684814 25V3C0.684814 1.375 1.99731 0 3.68481 0H25.6848ZM15.8723 21.875V12.875H13.2473V21.8125C13.2473 23.125 12.6848 23.5 11.8723 23.5C10.9348 23.5 10.5598 22.875 10.1848 22.125L7.99731 23.4375C8.62231 24.75 9.87231 25.8125 11.9348 25.8125C14.3098 25.8125 15.8723 24.5625 15.8723 21.875ZM22.1223 25.8125C24.6223 25.8125 26.4973 24.5625 26.4973 22.1875C26.4973 20 25.2473 19 22.9973 18.0625L22.3098 17.75C21.1848 17.25 20.6848 16.9375 20.6848 16.125C20.6848 15.5 21.1848 15 21.9348 15C22.7473 15 23.1848 15.375 23.6848 16.125L25.6848 14.8125C24.8723 13.3125 23.6223 12.75 21.9973 12.75C19.6223 12.75 18.1223 14.25 18.1223 16.1875C18.1223 18.375 19.3723 19.375 21.2473 20.1875L21.9348 20.4375C23.1223 21 23.8723 21.3125 23.8723 22.1875C23.8723 22.9375 23.1223 23.5 22.0598 23.5C20.7473 23.5 20.0598 22.8125 19.4973 21.9375L17.3098 23.125C18.1223 24.6875 19.6848 25.8125 22.1223 25.8125Z" fill="#003887"/>
</svg>
