<svg width="27" height="27" viewBox="0 0 27 27" fill="none" xmlns="http://www.w3.org/2000/svg">
<g clip-path="url(#clip0_33326_54)">
<path d="M4.8 0H22.2C24.9 0 27 2.1 27 4.8V21.6C27 24.2 24.9 26.4 22.2 26.4H4.8C2.2 26.4 0 24.3 0 21.6V4.8C0 2.1 2.1 0 4.8 0Z" fill="#003887"/>
<path d="M6.10001 18.5V6.90005C6.10001 6.80005 6.10001 6.80005 6.20001 6.80005C6.40001 6.80005 6.60001 6.80005 6.80001 6.80005C7.10001 6.80005 7.40001 6.80005 7.70001 6.80005C8.00001 6.80005 8.30001 6.80005 8.70001 6.80005C9.00001 6.80005 9.40001 6.80005 9.70001 6.80005C10.6 6.80005 11.4 6.90005 12 7.10005C12.6 7.30005 13.1 7.60005 13.5 8.00005C13.9 8.40005 14.1 8.80005 14.3 9.30005C14.5 9.80005 14.6 10.3 14.6 10.8C14.6 11.8 14.4 12.6 13.9 13.2C13.4 13.8 12.8 14.3 12.1 14.6C11.3 14.9 10.5 15 9.60001 15C9.30001 15 9.20001 15 9.00001 15C8.80001 15 8.70001 15 8.50001 15V18.6C8.50001 18.7 8.50001 18.7 8.40001 18.8H6.20001C6.10001 18.6 6.10001 18.6 6.10001 18.5ZM8.50001 8.90005V12.7C8.70001 12.7 8.80001 12.7 8.90001 12.7H9.50001C9.90001 12.7 10.4 12.6 10.8 12.5C11.2 12.4 11.5 12.2 11.7 11.9C11.9 11.6 12 11.2 12 10.7C12 10.4 11.9 10 11.7 9.70005C11.5 9.40005 11.2 9.20005 10.9 9.10005C10.7 9.00005 10.2 8.90005 9.80001 8.90005C9.50001 8.90005 9.20001 8.90005 9.00001 8.90005C8.80001 8.90005 8.60001 8.90005 8.50001 8.90005Z" fill="white"/>
<path d="M21.6 12C21.3 11.8 20.9 11.7 20.5 11.6C20.1 11.5 19.7 11.5 19.2 11.5C19 11.5 18.7 11.5 18.5 11.6C18.4 11.6 18.2 11.7 18.2 11.8C18.1 11.9 18.1 12 18.1 12.1C18.1 12.2 18.1 12.3 18.2 12.4C18.3 12.5 18.4 12.6 18.6 12.7C18.9 12.8 19.1 13 19.4 13.1C20 13.3 20.6 13.6 21.1 13.9C21.5 14.1 21.8 14.5 22 14.8C22.2 15.2 22.3 15.6 22.3 16C22.3 16.5 22.2 17.1 21.9 17.5C21.6 17.9 21.1 18.3 20.6 18.5C20 18.7 19.4 18.9 18.6 18.9C18.1 18.9 17.6 18.9 17.1 18.8C16.7 18.7 16.3 18.6 16 18.4C15.9 18.4 15.9 18.3 15.9 18.2V16.2V16.1H16C16.4 16.4 16.9 16.5 17.4 16.7C17.8 16.8 18.3 16.9 18.7 16.9C19.1 16.9 19.4 16.8 19.6 16.7C19.8 16.6 19.9 16.4 19.9 16.2C19.9 16 19.8 15.9 19.6 15.7C19.4 15.6 19 15.4 18.5 15.2C17.9 15 17.4 14.7 16.9 14.4C16.6 14.2 16.3 13.8 16 13.4C15.8 13 15.7 12.6 15.7 12.3C15.7 11.8 15.8 11.4 16.1 10.9C16.4 10.5 16.8 10.1 17.3 9.9C17.8 9.6 18.5 9.5 19.3 9.5C19.8 9.5 20.2 9.5 20.7 9.6C21 9.6 21.4 9.7 21.7 9.9L21.8 10V10.1V11.9C21.8 11.9 21.8 12 21.7 12H21.6Z" fill="white"/>
</g>
<defs>
<clipPath id="clip0_33326_54">
<rect width="27" height="26.3" fill="white"/>
</clipPath>
</defs>
</svg>
