<svg width="36" height="23" viewBox="0 0 36 23" fill="none" xmlns="http://www.w3.org/2000/svg">
<g clip-path="url(#clip0_33304_42)">
<path d="M8.00121 0.0557766C6.9697 0.27602 5.87685 1.1542 4.77563 2.6485C2.61224 5.58693 0.730421 10.619 0.167269 14.957C0.0446024 15.9049 0.0167236 16.3509 0.0167236 17.3546C0.0167236 18.3749 0.0446024 18.768 0.167269 19.4594C0.543633 21.5475 1.52775 22.7324 3.07503 22.961C3.81103 23.0697 4.53866 22.9275 5.26909 22.5344C5.96327 22.1609 6.54315 21.6981 7.36 20.8645C8.07648 20.1341 8.54764 19.5709 9.75758 17.9958C10.1451 17.4884 10.58 16.9336 10.725 16.7635L10.987 16.4485H17.8424H24.6978L24.9599 16.7635C25.1049 16.9336 25.5732 17.533 26.0053 18.0933C27.2766 19.7494 27.7561 20.3097 28.5646 21.1043C29.2504 21.7733 29.7244 22.1469 30.3182 22.4815C31.0932 22.9164 31.8432 23.0753 32.6098 22.961C32.9695 22.908 33.265 22.816 33.5689 22.6627C35.4618 21.7148 36.1198 18.6258 35.3921 14.1206C34.8067 10.4964 33.3291 6.44559 31.5699 3.62705C31.0012 2.7182 30.4687 2.03517 29.8442 1.40511C29.1055 0.663534 28.5089 0.27602 27.8063 0.0780792C27.5861 0.013958 27.5721 0.013958 25.2024 0.00559425C22.8885 -0.00276947 22.816 1.90735e-05 22.6376 0.05299C22.4006 0.125473 22.0549 0.345716 21.4945 0.780624C20.9899 1.17093 20.7139 1.34935 20.4993 1.42741C20.3627 1.47481 20.2093 1.47759 17.8424 1.47759C15.4755 1.47759 15.3222 1.47481 15.1856 1.42741C14.9709 1.34935 14.6949 1.17093 14.1903 0.780624C13.6327 0.348505 13.287 0.128262 13.0528 0.0557766C12.88 0.00280762 12.7936 1.90735e-05 10.5549 0.00280762C8.42497 0.00280762 8.21867 0.0083828 8.00121 0.0557766ZM26.7162 3.5239C27.009 3.5936 27.2655 3.81941 27.3658 4.10378C27.4216 4.25711 27.4216 4.55263 27.3658 4.70596C27.1344 5.35275 26.3036 5.52838 25.8436 5.02935C25.6624 4.8342 25.6067 4.68644 25.6067 4.40487C25.6067 4.22366 25.6206 4.13723 25.6652 4.03966C25.7823 3.78875 26.0137 3.59638 26.2869 3.5239C26.4542 3.47929 26.5211 3.47929 26.7162 3.5239ZM9.36727 4.89275V5.88244H10.357H11.3467L11.3411 6.54038L11.3327 7.19553L10.3514 7.19275H9.36727L9.3617 8.18802L9.35333 9.18608L8.69261 9.19444L8.02909 9.20002V8.19638V7.19275H7.03939H6.0497V6.53759V5.88244H7.03939H8.02909V4.89275V3.90305H8.69818H9.36727V4.89275ZM24.4859 5.7542C24.787 5.8239 25.063 6.08317 25.1467 6.37311C25.1969 6.54596 25.1718 6.87493 25.0965 7.03105C25.0101 7.20669 24.8289 7.38232 24.6449 7.46875C24.4218 7.5719 24.1096 7.56911 23.8893 7.46317C23.7053 7.37396 23.5213 7.18717 23.4377 7.00317C23.3513 6.81917 23.3513 6.45117 23.4349 6.26996C23.5548 6.01347 23.8029 5.80996 24.0789 5.74584C24.2322 5.70959 24.3047 5.71238 24.4859 5.7542ZM29.1807 5.82668C29.4958 5.98281 29.677 6.27553 29.677 6.63517C29.677 6.81638 29.663 6.87214 29.585 7.03105C29.4233 7.36281 29.1361 7.54123 28.7709 7.54123C28.4029 7.53844 28.1186 7.36002 27.9569 7.03105C27.8788 6.87214 27.8649 6.81917 27.8649 6.63517C27.8676 6.4679 27.8816 6.39262 27.9401 6.26996C28.1632 5.78487 28.7012 5.5925 29.1807 5.82668ZM26.9365 8.07929C27.1149 8.16572 27.2878 8.34693 27.3742 8.53093C27.469 8.73444 27.4746 9.06341 27.3853 9.26135C27.3017 9.44535 27.1205 9.63214 26.9337 9.72135C26.7999 9.78826 26.7441 9.79941 26.5406 9.79941C26.3371 9.79941 26.2813 9.78826 26.1447 9.72135C25.6792 9.49275 25.4924 8.9045 25.7489 8.45844C25.8353 8.30511 26.0667 8.09881 26.2144 8.04584C26.3929 7.97893 26.7692 7.99844 26.9365 8.07929ZM14.3715 11.6673C15.0434 11.8095 15.6149 12.3782 15.7682 13.064C15.863 13.4934 15.7794 13.9924 15.5508 14.3799C15.4058 14.628 15.1047 14.9124 14.8455 15.0462C14.5472 15.1995 14.3185 15.2581 13.9952 15.2581C13.2815 15.2609 12.657 14.8706 12.3503 14.2321C12.2109 13.9394 12.1719 13.761 12.1747 13.4376C12.1775 12.7211 12.5594 12.1189 13.2062 11.8039C13.5602 11.631 13.9728 11.5837 14.3715 11.6673ZM22.0884 11.6673C22.4703 11.7481 22.8801 12.0046 23.1227 12.3113C23.3903 12.6514 23.5102 13.0138 23.5102 13.4655C23.5074 13.9812 23.3262 14.3938 22.9415 14.7618C22.5874 15.0992 22.1804 15.2609 21.6897 15.2581C21.1962 15.2553 20.7613 15.0769 20.4212 14.734C20.0783 14.3883 19.911 14.0175 19.8859 13.5491C19.8664 13.2062 19.9222 12.9358 20.0783 12.6207C20.3069 12.1635 20.8032 11.776 21.2994 11.6701C21.5364 11.6171 21.8542 11.6171 22.0884 11.6673Z" fill="#003887"/>
</g>
<defs>
<clipPath id="clip0_33304_42">
<rect width="35.6849" height="23" fill="white"/>
</clipPath>
</defs>
</svg>
