<svg width="31" height="24" viewBox="0 0 31 24" fill="none" xmlns="http://www.w3.org/2000/svg">
<g clip-path="url(#clip0_33305_45)">
<path d="M2.78484 23.3C2.88484 23.3 2.88484 23.3 2.78484 23.3C3.08484 23 3.28484 22.9 3.48484 22.7C3.88484 22.5 4.28484 22.3 4.68484 22.1C5.28484 21.8 5.88484 21.6 6.58484 21.5C7.18484 21.3 7.68484 21.2 8.28484 21.1C8.68484 21 9.08484 21 9.38484 20.9C9.48484 20.9 9.48484 20.9 9.58484 20.9C9.28484 19.8 8.78484 18.7 8.18484 17.7C7.78484 17.2 7.38484 16.7 6.98484 16.2C6.18484 15.5 5.28484 15 4.28484 14.7H4.18484C4.18484 14.8 4.28484 14.8 4.28484 14.8H4.18484C4.18484 14.8 4.18484 14.8 4.28484 14.9C4.28484 14.9 4.28484 14.9 4.38484 15C4.38484 15 4.38484 15 4.48484 15.1C4.48484 15.1 4.48484 15.2 4.58484 15.2H4.48484C4.58484 15.3 4.68484 15.4 4.68484 15.5C4.68484 15.5 4.68484 15.5 4.58484 15.5C4.58484 15.5 4.58484 15.5 4.48484 15.5C4.58484 15.5 4.58484 15.6 4.68484 15.6L4.78484 15.7C4.68484 15.8 4.68484 15.9 4.78484 16C4.68484 16 4.68484 16 4.68484 16C4.78484 16.1 4.88484 16.2 4.98484 16.3C4.98484 16.3 4.98484 16.3 4.88484 16.3C4.88484 16.3 4.88484 16.3 4.78484 16.3C4.78484 16.3 4.78484 16.3 4.68484 16.3C4.78484 16.3 4.78484 16.4 4.88484 16.4C4.98484 16.5 4.98484 16.5 4.98484 16.6H4.88484C4.98484 16.7 4.98484 16.7 5.08484 16.8C5.08484 16.8 5.08484 16.9 5.18484 16.9C5.08484 16.9 5.08484 16.9 4.98484 16.9H4.88484C4.98484 16.9 4.98484 17 5.08484 17C5.08484 17 5.18484 17 5.18484 17.1H5.08484C5.08484 17.1 5.08484 17.1 5.18484 17.1C5.28484 17.1 5.28484 17.2 5.38484 17.3C5.48484 17.4 5.48484 17.4 5.48484 17.5C5.48484 17.5 5.48484 17.5 5.38484 17.5C5.08484 17.5 4.68484 17.4 4.38484 17.2C4.38484 17.2 4.38484 17.2 4.28484 17.1C4.18484 17 4.18484 16.8 4.08484 16.6C4.08484 16.7 3.98484 16.7 3.98484 16.8C3.98484 16.8 3.98484 16.8 3.98484 16.9C3.88484 16.8 3.78484 16.6 3.68484 16.5V16.4V16.3C3.68484 16.3 3.68484 16.3 3.68484 16.2C3.68484 16.2 3.58484 16.2 3.58484 16.3C3.48484 16.1 3.48484 15.9 3.38484 15.7V15.6L3.28484 15.5C3.28484 15.5 3.28484 15.5 3.28484 15.6C3.28484 15.7 3.38484 15.9 3.38484 16C3.28484 16 3.28484 15.9 3.18484 15.9V16C3.28484 16.1 3.28484 16.2 3.28484 16.3V16.4C3.18484 16.4 3.18484 16.3 3.08484 16.3L3.18484 16.4C3.18484 16.4 3.18484 16.5 3.28484 16.5V16.6C3.28484 16.6 3.28484 16.7 3.28484 16.8L3.18484 16.7H3.08484C3.18484 16.8 3.18484 16.9 3.18484 17C3.18484 17.1 3.18484 17.2 3.18484 17.3L3.08484 17.2C3.08484 17.2 3.08484 17.2 3.08484 17.3C3.18484 17.4 3.18484 17.5 3.18484 17.6V17.7C3.18484 17.7 3.18484 17.7 3.18484 17.8C3.18484 17.8 3.08484 17.8 3.08484 17.7C3.08484 17.7 3.08484 17.7 3.08484 17.8C3.08484 17.9 3.18484 18 3.18484 18.2C3.18484 18.3 3.18484 18.3 3.18484 18.4C3.08484 18.3 3.08484 18.2 2.98484 18.2C2.98484 18.2 2.98484 18.2 2.88484 18.2V18.3V18.4V18.5V18.6H2.78484C2.78484 18.6 2.78484 18.6 2.78484 18.7C2.88484 18.8 2.88484 18.9 2.88484 19C2.88484 19.1 2.88484 19.2 2.88484 19.4C2.88484 19.4 2.88484 19.4 2.78484 19.4C2.48484 19.2 2.28484 18.9 2.08484 18.5C2.08484 18.5 1.98484 18.4 1.98484 18.3V18.2C1.98484 18 1.98484 17.8 2.08484 17.6C2.08484 17.6 2.08484 17.6 2.08484 17.5H1.98484C1.98484 17.5 1.98484 17.5 1.88484 17.5C1.88484 17.5 1.88484 17.5 1.78484 17.6C1.78484 17.6 1.78484 17.6 1.68484 17.7C1.68484 17.7 1.68484 17.7 1.58484 17.8C1.48484 17.6 1.48484 17.3 1.48484 17.1C1.48484 17 1.48484 17 1.58484 17L1.68484 16.9C1.68484 16.9 1.68484 16.9 1.78484 16.9H1.68484C1.68484 16.9 1.68484 16.9 1.58484 16.9C1.58484 16.8 1.58484 16.8 1.58484 16.7C1.58484 16.4 1.68484 16.2 1.88484 15.9C1.88484 15.8 1.88484 15.8 1.88484 15.7C1.78484 15.8 1.78484 16 1.58484 16C1.58484 16 1.58484 16 1.58484 15.9C1.58484 15.9 1.58484 15.9 1.58484 15.8C1.58484 15.8 1.58484 15.8 1.58484 15.7C1.48484 15.8 1.48484 15.9 1.38484 16C1.38484 15.9 1.38484 15.9 1.38484 15.9C1.38484 16 1.28484 16 1.28484 16.1C1.28484 16.2 1.18484 16.2 1.08484 16.3C1.08484 16.2 1.08484 16.1 1.08484 16C1.08484 16.1 0.984839 16.1 0.984839 16.2C0.984839 16.2 0.984839 16.3 0.884839 16.4V16.3C0.884839 16.4 0.784839 16.4 0.784839 16.5C0.784839 16.6 0.684839 16.6 0.584839 16.7C0.584839 16.6 0.584839 16.5 0.584839 16.4C0.584839 15.9 0.784839 15.5 1.08484 15.1C1.18484 15 1.28484 14.9 1.38484 14.9C1.58484 14.8 1.78484 14.7 1.98484 14.6C2.08484 14.6 2.08484 14.5 2.08484 14.5H1.98484H1.88484C1.88484 14.5 1.88484 14.5 1.88484 14.4C1.78484 14.4 1.78484 14.4 1.68484 14.4H1.58484C1.68484 14.1 1.78484 14 1.78484 14C1.68484 14 1.68484 14 1.58484 14C1.58484 14 1.58484 14 1.48484 14C1.38484 14 1.28484 14 1.28484 14H1.18484C1.18484 13.9 1.28484 13.9 1.28484 13.9C1.38484 13.8 1.58484 13.8 1.68484 13.7C1.88484 13.7 1.98484 13.6 2.18484 13.7C2.38484 13.7 2.48484 13.8 2.58484 13.9V13.8C2.58484 13.7 2.58484 13.6 2.58484 13.5C2.58484 13.3 2.48484 13.1 2.48484 13C2.48484 12.8 2.48484 12.6 2.48484 12.4C2.48484 12.3 2.48484 12.1 2.58484 12C2.58484 11.9 2.68484 11.8 2.78484 11.7C2.78484 11.8 2.78484 11.9 2.88484 12C2.88484 12.1 2.98484 12.3 3.08484 12.4V12.5C3.08484 12.6 3.08484 12.7 2.98484 12.7C2.98484 12.7 2.98484 12.7 2.98484 12.8L3.08484 12.7C3.08484 12.8 3.18484 12.9 3.18484 13V13.1C3.18484 13.1 3.18484 13.2 3.08484 13.2C3.08484 13.2 3.08484 13.2 3.18484 13.2V13.1V13C3.28484 13 3.28484 13.1 3.38484 13.1C3.38484 13 3.28484 12.9 3.28484 12.8V12.7C3.28484 12.8 3.38484 12.8 3.38484 12.8C3.38484 12.8 3.38484 12.8 3.38484 12.7C3.38484 12.5 3.38484 12.3 3.48484 12.2V12.3C3.48484 12.3 3.48484 12.4 3.58484 12.4C3.58484 12.3 3.58484 12.3 3.58484 12.2C3.58484 12.1 3.58484 12.1 3.68484 12C3.68484 11.9 3.78484 11.9 3.78484 11.9L3.88484 11.8C3.88484 11.8 3.88484 11.8 3.88484 11.9C3.88484 11.9 3.88484 11.9 3.88484 12C3.88484 12 3.88484 12 3.88484 12.1C3.88484 12 3.98484 12 3.98484 11.9C4.08484 11.8 4.08484 11.7 4.18484 11.7C4.18484 11.8 4.18484 11.8 4.18484 11.9C4.28484 11.8 4.38484 11.8 4.48484 11.7H4.58484C4.58484 11.7 4.58484 11.7 4.68484 11.7C4.68484 11.7 4.68484 11.8 4.58484 11.8C4.58484 11.8 4.58484 11.9 4.48484 11.9V12V12.1C4.58484 12.1 4.58484 12 4.68484 12C4.68484 12 4.78484 11.9 4.88484 11.9V12C4.98484 11.9 5.08484 11.9 5.18484 11.9C5.28484 11.9 5.28484 11.9 5.38484 11.9C5.18484 12.1 4.98484 12.3 4.88484 12.6L4.78484 12.7C4.68484 12.7 4.58484 12.8 4.38484 12.8C4.48484 12.8 4.48484 12.9 4.58484 12.9C4.48484 13 4.48484 13.1 4.38484 13.2C4.38484 13.2 4.38484 13.2 4.28484 13.3H4.18484L4.28484 13.4C4.18484 13.5 4.18484 13.6 4.08484 13.7C4.08484 13.7 4.08484 13.7 4.08484 13.8V13.9C4.08484 13.8 4.08484 13.8 4.18484 13.7C4.18484 13.7 4.18484 13.7 4.28484 13.6C4.28484 13.6 4.28484 13.6 4.38484 13.5C4.38484 13.5 4.38484 13.5 4.38484 13.6C4.38484 13.6 4.38484 13.6 4.38484 13.7C4.48484 13.6 4.58484 13.5 4.68484 13.5C4.68484 13.5 4.68484 13.5 4.68484 13.6C4.78484 13.5 4.78484 13.5 4.88484 13.5C4.88484 13.5 4.88484 13.5 4.98484 13.5V13.6H5.08484H5.18484H5.28484L5.18484 13.7H5.28484C5.28484 13.7 5.28484 13.7 5.38484 13.7H5.48484C5.48484 13.7 5.48484 13.7 5.58484 13.7C5.58484 13.7 5.58484 13.7 5.68484 13.7C5.68484 13.7 5.68484 13.7 5.78484 13.7C5.78484 13.7 5.78484 13.7 5.88484 13.7C5.88484 13.7 5.88484 13.7 5.98484 13.7C5.98484 13.7 5.98484 13.7 6.08484 13.7C6.08484 13.7 6.08484 13.7 5.98484 13.7C5.78484 13.8 5.68484 13.9 5.48484 14H5.38484C5.28484 14 5.28484 14 5.18484 14C5.18484 14 5.18484 14 5.08484 14C5.08484 14.1 5.18484 14.1 5.18484 14.1C5.18484 14.1 5.08484 14.1 5.08484 14.2C5.08484 14.2 4.98484 14.2 4.98484 14.3H4.88484C4.88484 14.3 4.88484 14.3 4.78484 14.3V14.4L4.68484 14.5C4.68484 14.5 4.68484 14.5 4.68484 14.6C4.78484 14.5 4.78484 14.5 4.88484 14.4C4.98484 14.4 4.98484 14.3 5.08484 14.3H5.18484V14.4V14.5C5.18484 14.5 5.18484 14.5 5.28484 14.5C5.38484 14.4 5.48484 14.3 5.58484 14.3H5.68484V14.4C5.68484 14.4 5.68484 14.4 5.68484 14.5C5.68484 14.5 5.68484 14.5 5.68484 14.6L5.78484 14.5C5.78484 14.5 5.88484 14.5 5.88484 14.4H5.98484H6.08484H6.18484C6.18484 14.4 6.18484 14.4 6.08484 14.5C6.08484 14.5 6.08484 14.5 5.98484 14.6C5.98484 14.6 5.98484 14.6 5.98484 14.7C6.08484 14.7 6.18484 14.6 6.38484 14.6C6.48484 14.6 6.48484 14.6 6.58484 14.6C6.68484 14.6 6.68484 14.6 6.78484 14.6L6.68484 14.7C6.78484 14.7 6.88484 14.7 6.98484 14.7C7.08484 14.7 7.18484 14.7 7.28484 14.8C7.18484 14.8 7.18484 14.8 7.08484 14.9C7.08484 14.9 7.08484 14.9 7.18484 14.9C7.28484 14.9 7.48484 15 7.58484 15C7.58484 15 7.68484 15 7.68484 15.1H7.58484H7.48484H7.38484H7.28484C7.38484 15.1 7.38484 15.1 7.48484 15.1C7.58484 15.1 7.58484 15.1 7.68484 15.2C7.68484 15.2 7.58484 15.2 7.58484 15.3H7.68484C7.78484 15.3 7.88484 15.4 7.98484 15.5C7.98484 15.6 8.08484 15.6 8.08484 15.7C7.78484 15.5 7.48484 15.3 7.08484 15.2C6.78484 15.1 6.48484 15 6.18484 15C5.88484 15 5.48484 14.9 5.18484 15C4.98484 15 4.68484 15 4.48484 15.1C4.88484 15.2 5.18484 15.3 5.48484 15.4C6.18484 15.7 6.78484 16.1 7.28484 16.6C7.78484 17.1 8.28484 17.6 8.68484 18.2C8.88484 18.5 9.08484 18.8 9.28484 19.1C9.28484 19.1 9.28484 19.1 9.28484 19.2C9.28484 19.2 9.28484 19.2 9.28484 19.1C9.18484 18.8 9.18484 18.4 9.08484 18.1C9.08484 17.8 8.98484 17.6 8.98484 17.3C8.98484 17 8.88484 16.7 8.88484 16.5C8.88484 16.2 8.78484 16 8.78484 15.7C8.78484 15.4 8.68484 15.2 8.68484 14.9C8.68484 14.7 8.68484 14.5 8.68484 14.3C8.68484 13.9 8.68484 13.6 8.68484 13.2C8.68484 12.7 8.68484 12.2 8.68484 11.8C8.68484 11.5 8.68484 11.2 8.68484 11C8.68484 10.7 8.78484 10.4 8.78484 10.1C8.88484 9.50003 8.88484 9.00003 9.08484 8.40003C9.08484 8.20003 9.18484 7.90003 9.28484 7.70003C9.28484 7.70003 9.28484 7.70003 9.28484 7.60003C9.28484 7.60003 9.18484 7.60003 9.18484 7.70003C9.18484 7.00003 9.18484 7.00003 9.18484 7.00003C9.18484 7.00003 9.18484 7.00003 9.08484 7.10003C9.08484 7.10003 9.08484 7.10003 8.98484 7.20003C8.98484 7.20003 8.98484 7.20003 8.88484 7.30003C8.88484 7.30003 8.88484 7.40003 8.78484 7.40003C8.78484 7.40003 8.78484 7.50003 8.68484 7.50003C8.68484 7.50003 8.68484 7.60003 8.58484 7.60003C8.68484 7.40003 8.58484 7.40003 8.58484 7.30003C8.58484 7.40003 8.58484 7.50003 8.58484 7.60003V7.70003C8.38484 8.00003 8.18484 8.20003 7.98484 8.50003C7.88484 8.40003 7.78484 8.30003 7.68484 8.20003V8.30003C7.78484 8.40003 7.78484 8.50003 7.78484 8.60003C7.78484 8.60003 7.78484 8.60003 7.78484 8.70003C7.78484 8.70003 7.78484 8.70003 7.78484 8.80003C7.68484 9.00003 7.58484 9.20003 7.38484 9.40003C7.38484 9.40003 7.38484 9.40003 7.38484 9.50003C7.28484 9.40003 7.28484 9.30003 7.18484 9.30003C7.18484 9.40003 7.28484 9.50003 7.28484 9.60003V9.70003C7.18484 9.80003 7.08484 9.90003 7.08484 10C7.08484 10 6.98484 9.90003 6.88484 9.90003C6.88484 10 6.88484 10 6.88484 10.1V10.2C6.78484 10.4 6.58484 10.6 6.48484 10.8C6.48484 10.8 6.48484 10.8 6.38484 10.9C6.38484 10.7 6.28484 10.6 6.28484 10.4C6.28484 10.2 6.28484 10.1 6.28484 9.90003C6.28484 9.70003 6.28484 9.60003 6.28484 9.40003V9.30003C6.38484 9.10003 6.48484 8.90003 6.68484 8.70003C6.58484 8.70003 6.58484 8.70003 6.48484 8.70003C6.38484 8.70003 6.38484 8.70003 6.28484 8.80003C6.48484 8.40003 6.58484 8.20003 6.68484 7.90003C6.68484 7.90003 6.68484 7.90003 6.78484 7.80003C6.88484 7.80003 6.98484 7.70003 6.98484 7.70003C6.98484 7.60003 6.88484 7.60003 6.78484 7.60003C7.08484 7.30003 7.38484 7.00003 7.68484 6.80003C7.78484 6.70003 7.88484 6.70003 8.08484 6.60003C8.18484 6.60003 8.28484 6.60003 8.28484 6.60003C8.28484 6.60003 8.28484 6.60003 8.18484 6.50003C8.38484 6.40003 8.48484 6.40003 8.68484 6.30003C8.68484 6.30003 8.68484 6.30003 8.78484 6.30003C8.58484 6.30003 8.48484 6.30003 8.28484 6.30003H8.18484C8.18484 6.20003 8.18484 6.10003 8.18484 6.00003C8.18484 6.10003 8.08484 6.10003 7.98484 6.20003L7.88484 6.30003C7.68484 6.30003 7.48484 6.40003 7.28484 6.40003C7.18484 6.40003 7.08484 6.40003 6.98484 6.40003V6.30003C6.98484 6.20003 6.98484 6.10003 6.98484 6.00003C6.98484 6.00003 6.98484 6.00003 6.98484 5.90003C6.98484 6.00003 6.88484 6.10003 6.88484 6.10003C6.88484 6.20003 6.78484 6.20003 6.78484 6.30003C6.28484 6.60003 5.78484 6.70003 5.68484 6.70003C5.68484 6.60003 5.68484 6.50003 5.68484 6.40003C5.68484 6.40003 5.68484 6.50003 5.68484 6.60003C5.68484 6.70003 5.58484 6.70003 5.58484 6.80003C5.38484 6.80003 5.28484 6.90003 5.08484 6.90003V6.80003V6.70003C5.08484 6.80003 4.98484 6.80003 4.98484 6.90003C4.98484 6.90003 4.98484 6.90003 4.88484 6.90003C4.58484 7.00003 4.28484 7.10003 4.08484 7.20003C4.08484 7.20003 4.08484 7.20003 4.08484 7.10003C4.18484 6.90003 4.18484 6.70003 4.28484 6.60003C4.48484 6.30003 4.68484 6.00003 4.98484 5.80003H5.08484C5.28484 5.70003 5.38484 5.70003 5.58484 5.70003C5.68484 5.70003 5.78484 5.70003 5.78484 5.70003C5.78484 5.70003 5.78484 5.70003 5.88484 5.70003C5.88484 5.60003 5.78484 5.50003 5.58484 5.50003C5.88484 5.40003 6.18484 5.30003 6.48484 5.20003C6.48484 5.20003 6.48484 5.20003 6.58484 5.20003C6.68484 5.20003 6.78484 5.30003 6.78484 5.30003C6.78484 5.30003 6.78484 5.30003 6.88484 5.30003V5.20003C7.08484 5.20003 7.28484 5.20003 7.48484 5.20003C7.68484 5.20003 7.88484 5.20003 8.08484 5.30003H8.18484C8.38484 5.40003 8.48484 5.40003 8.58484 5.60003C8.58484 5.50003 8.58484 5.50003 8.48484 5.40003C8.58484 5.50003 8.78484 5.50003 8.88484 5.60003C8.88484 5.60003 8.88484 5.60003 8.98484 5.60003C9.08484 5.60003 9.08484 5.60003 9.08484 5.50003C8.98484 5.50003 8.98484 5.50003 8.88484 5.50003H8.78484C8.58484 5.20003 8.48484 5.00003 8.28484 4.90003L8.38484 4.80003C8.28484 4.80003 8.18484 4.90003 8.08484 4.90003C8.08484 4.90003 8.08484 4.90003 7.98484 4.90003C7.88484 4.60003 7.78484 4.50003 7.58484 4.40003C7.58484 4.40003 7.68484 4.40003 7.68484 4.30003C7.68484 4.30003 7.68484 4.30003 7.78484 4.20003C7.68484 4.30003 7.58484 4.30003 7.48484 4.40003C7.38484 4.30003 7.28484 4.20003 7.18484 4.20003C7.18484 4.20003 7.18484 4.20003 7.18484 4.10003C7.18484 4.10003 7.18484 4.10003 7.18484 4.00003H7.08484C7.08484 4.00003 7.08484 4.00003 6.98484 4.00003C6.78484 4.00003 6.68484 3.90003 6.48484 3.80003C6.68484 3.70003 6.88484 3.60003 7.08484 3.60003C7.28484 3.60003 7.38484 3.60003 7.58484 3.60003C7.68484 3.60003 7.68484 3.60003 7.78484 3.60003C7.98484 3.70003 8.08484 3.80003 8.18484 3.90003V3.80003V3.70003C8.38484 3.80003 8.58484 3.90003 8.78484 4.00003C8.78484 4.00003 8.78484 4.00003 8.88484 4.10003C8.88484 4.10003 8.88484 4.20003 8.98484 4.30003C9.08484 4.30003 9.08484 4.20003 9.08484 4.20003C9.18484 4.30003 9.18484 4.30003 9.28484 4.40003C9.28484 4.40003 9.38484 4.50003 9.38484 4.40003C9.38484 4.40003 9.38484 4.40003 9.48484 4.40003C9.48484 4.40003 9.48484 4.40003 9.38484 4.40003C9.28484 4.40003 9.28484 4.30003 9.18484 4.30003L9.08484 4.20003C9.08484 4.10003 9.08484 4.00003 9.08484 4.00003C9.08484 3.90003 9.08484 3.80003 9.08484 3.70003C9.08484 3.70003 9.08484 3.70003 9.08484 3.60003C9.18484 3.60003 9.18484 3.60003 9.28484 3.60003C9.18484 3.60003 9.18484 3.50003 9.08484 3.50003C9.08484 3.40003 9.08484 3.30003 9.08484 3.20003H9.18484C9.18484 3.20003 9.08484 3.10003 9.08484 3.00003C9.08484 2.80003 9.08484 2.70003 9.08484 2.50003C9.08484 2.50003 9.08484 2.50003 9.18484 2.50003C9.28484 2.60003 9.48484 2.80003 9.58484 3.00003C9.58484 2.90003 9.68484 3.00003 9.68484 3.10003V3.20003C9.68484 3.40003 9.68484 3.50003 9.68484 3.70003C9.68484 3.70003 9.78484 3.70003 9.78484 3.60003L9.88484 3.50003C9.98484 3.70003 9.98484 3.90003 9.98484 4.00003C9.98484 4.10003 9.98484 4.10003 9.98484 4.20003C9.98484 4.20003 9.98484 4.30003 9.88484 4.30003H9.98484C9.98484 4.30003 9.98484 4.30003 9.98484 4.40003C9.98484 4.50003 9.98484 4.70003 9.98484 4.80003C9.98484 4.80003 9.98484 4.80003 9.98484 4.90003L10.0848 4.80003C10.0848 4.80003 10.0848 4.70003 10.1848 4.70003C10.1848 4.70003 10.1848 4.60003 10.2848 4.60003C10.2848 4.60003 10.2848 4.50003 10.3848 4.50003C10.3848 4.50003 10.3848 4.50003 10.4848 4.40003V4.50003C10.4848 4.50003 10.4848 4.50003 10.4848 4.60003C10.4848 4.60003 10.4848 4.60003 10.5848 4.70003C10.5848 4.60003 10.5848 4.50003 10.5848 4.50003C10.5848 4.50003 10.5848 4.50003 10.5848 4.40003C10.7848 4.10003 10.9848 4.00003 11.1848 4.00003V4.10003C11.1848 4.00003 11.1848 4.00003 11.2848 3.90003C11.2848 3.90003 11.2848 3.90003 11.3848 3.90003C11.4848 3.90003 11.5848 3.90003 11.6848 3.80003V3.90003C11.7848 3.80003 11.7848 3.80003 11.9848 3.80003C12.0848 3.80003 12.1848 3.80003 12.3848 3.90003C12.3848 3.90003 12.3848 3.90003 12.4848 3.90003C12.2848 4.10003 12.0848 4.20003 11.7848 4.40003H11.6848C11.5848 4.40003 11.4848 4.50003 11.3848 4.50003H11.2848C11.3848 4.60003 11.3848 4.60003 11.4848 4.60003C11.3848 4.70003 11.2848 4.80003 11.1848 4.90003H11.0848H10.9848L11.0848 5.00003C10.9848 5.10003 10.8848 5.10003 10.8848 5.20003H10.9848H11.0848H11.1848C11.1848 5.30003 11.1848 5.40003 11.2848 5.40003C11.2848 5.40003 11.2848 5.40003 11.2848 5.30003C11.2848 5.20003 11.3848 5.10003 11.3848 5.10003C11.3848 5.10003 11.3848 5.10003 11.4848 5.00003C11.5848 5.00003 11.6848 5.00003 11.7848 4.90003C11.8848 4.90003 12.0848 4.90003 12.1848 4.90003C12.3848 4.90003 12.5848 4.90003 12.6848 5.00003C12.6848 5.10003 12.5848 5.20003 12.5848 5.20003C12.5848 5.20003 12.5848 5.20003 12.5848 5.30003C12.5848 5.30003 12.5848 5.30003 12.6848 5.30003C12.7848 5.20003 12.8848 5.10003 12.9848 5.10003H13.0848C13.2848 5.20003 13.4848 5.30003 13.6848 5.40003H13.7848C13.7848 5.40003 13.6848 5.30003 13.5848 5.30003C13.6848 5.30003 13.7848 5.10003 13.8848 5.00003C13.9848 5.00003 14.1848 5.00003 14.2848 5.00003C14.1848 5.00003 14.1848 4.90003 14.0848 4.90003C14.2848 4.60003 14.5848 4.40003 14.8848 4.20003H14.9848C15.1848 4.20003 15.2848 4.30003 15.3848 4.40003C15.3848 4.40003 15.3848 4.40003 15.4848 4.40003C15.4848 4.30003 15.3848 4.20003 15.2848 4.10003C15.2848 4.10003 15.2848 4.10003 15.2848 4.00003C15.4848 3.90003 15.6848 3.90003 15.8848 3.80003C16.1848 3.70003 16.3848 3.70003 16.6848 3.70003C16.7848 3.70003 16.7848 3.70003 16.7848 3.80003C16.8848 3.90003 16.8848 3.90003 16.9848 4.00003C16.9848 4.00003 16.9848 4.00003 16.9848 4.10003C16.9848 4.00003 16.9848 4.00003 16.9848 3.80003C16.9848 3.80003 16.9848 3.80003 17.0848 3.80003C17.1848 3.80003 17.1848 3.80003 17.2848 3.90003C17.2848 3.90003 17.2848 3.90003 17.3848 3.90003C17.2848 3.80003 17.1848 3.80003 17.1848 3.70003C17.1848 3.70003 17.1848 3.70003 17.0848 3.70003L17.1848 3.60003H17.0848H16.9848C16.8848 3.50003 16.6848 3.40003 16.5848 3.30003C16.6848 3.10003 16.6848 3.10003 16.6848 3.00003C16.6848 3.00003 16.6848 3.00003 16.5848 3.00003C16.4848 3.00003 16.2848 3.00003 16.1848 3.00003H16.0848C15.8848 2.90003 15.6848 2.80003 15.5848 2.70003C15.4848 2.70003 15.3848 2.60003 15.3848 2.60003C15.3848 2.60003 15.3848 2.60003 15.2848 2.60003C15.4848 2.50003 15.5848 2.40003 15.7848 2.40003H15.8848C15.8848 2.40003 15.9848 2.40003 15.9848 2.50003V2.40003C16.0848 2.40003 16.1848 2.40003 16.2848 2.40003C16.3848 2.40003 16.3848 2.40003 16.3848 2.50003C16.3848 2.50003 16.3848 2.60003 16.4848 2.60003C16.4848 2.50003 16.4848 2.50003 16.4848 2.40003C16.4848 2.40003 16.4848 2.40003 16.5848 2.40003C16.7848 2.40003 16.9848 2.50003 17.1848 2.60003C17.1848 2.60003 17.2848 2.60003 17.2848 2.70003C17.2848 2.80003 17.3848 2.90003 17.3848 3.00003C17.3848 3.00003 17.3848 3.00003 17.3848 3.10003C17.3848 3.00003 17.4848 3.00003 17.4848 2.90003C17.4848 2.90003 17.5848 2.90003 17.5848 3.00003C17.5848 3.00003 17.6848 3.00003 17.6848 3.10003C17.6848 3.10003 17.7848 3.10003 17.7848 3.20003L17.8848 3.30003L17.9848 3.40003C17.9848 3.40003 17.9848 3.40003 17.9848 3.30003C17.9848 3.20003 17.9848 3.00003 17.8848 2.90003V2.80003H17.9848C17.9848 2.80003 17.9848 2.80003 17.8848 2.70003C17.7848 2.60003 17.7848 2.60003 17.7848 2.50003C17.7848 2.30003 17.7848 2.10003 17.7848 1.90003C17.7848 1.90003 17.8848 1.90003 17.8848 2.00003C17.8848 2.00003 17.9848 2.00003 17.9848 2.10003H18.0848C17.9848 1.90003 17.9848 1.80003 17.9848 1.60003V1.50003C18.0848 1.10003 18.2848 0.800028 18.4848 0.500028C18.6848 0.200028 18.6848 0.400028 18.7848 0.600028V0.700028C18.7848 0.700028 18.7848 0.800028 18.6848 0.800028H18.7848C18.7848 0.900028 18.7848 1.00003 18.8848 1.10003V1.20003L18.7848 1.30003C18.7848 1.30003 18.7848 1.30003 18.6848 1.30003C18.7848 1.30003 18.7848 1.30003 18.8848 1.20003C18.8848 1.30003 18.8848 1.50003 18.9848 1.60003C18.9848 1.70003 18.9848 1.70003 18.9848 1.80003V1.90003C18.8848 2.00003 18.8848 2.00003 18.7848 2.10003H18.8848C18.9848 2.00003 18.9848 2.00003 19.0848 1.90003C19.0848 1.90003 19.0848 1.90003 19.1848 1.80003L19.2848 1.90003C19.2848 1.80003 19.2848 1.80003 19.2848 1.70003C19.2848 1.70003 19.2848 1.70003 19.2848 1.60003C19.4848 1.40003 19.6848 1.30003 19.8848 1.10003C19.8848 1.20003 19.7848 1.30003 19.8848 1.40003C19.8848 1.40003 19.8848 1.40003 19.8848 1.30003C19.9848 1.10003 20.0848 1.00003 20.2848 0.800028H20.3848C20.7848 1.00003 21.0848 1.00003 21.3848 1.10003C21.4848 1.10003 21.6848 1.10003 21.7848 1.20003C21.6848 1.30003 21.5848 1.40003 21.4848 1.50003C21.3848 1.50003 21.3848 1.60003 21.2848 1.60003H21.1848C21.0848 1.60003 21.0848 1.60003 20.9848 1.60003C20.9848 1.60003 20.9848 1.70003 21.0848 1.70003C20.9848 1.80003 20.8848 1.90003 20.7848 2.00003C20.6848 2.00003 20.5848 2.00003 20.4848 1.90003C20.4848 2.00003 20.5848 2.00003 20.6848 2.10003C20.6848 2.10003 20.6848 2.20003 20.5848 2.20003L20.4848 2.30003L20.3848 2.40003L20.2848 2.50003L20.1848 2.60003L20.0848 2.70003C19.9848 2.70003 19.7848 2.70003 19.6848 2.70003C19.7848 2.70003 19.7848 2.80003 19.8848 2.80003C19.8848 2.80003 19.8848 2.80003 19.9848 2.80003C19.7848 3.00003 19.6848 3.20003 19.4848 3.40003C19.4848 3.40003 19.4848 3.50003 19.3848 3.50003C19.2848 3.50003 19.2848 3.50003 19.1848 3.50003C19.1848 3.50003 19.2848 3.50003 19.2848 3.60003C19.3848 3.60003 19.3848 3.50003 19.4848 3.50003C19.5848 3.50003 19.5848 3.40003 19.6848 3.40003C19.7848 3.40003 19.7848 3.30003 19.8848 3.30003V3.40003V3.50003C19.9848 3.30003 20.0848 3.20003 20.2848 3.10003C20.2848 3.10003 20.3848 3.10003 20.3848 3.00003C20.6848 2.90003 20.9848 2.80003 21.2848 2.80003C21.3848 2.80003 21.4848 2.80003 21.6848 2.80003C21.6848 2.80003 21.6848 2.80003 21.7848 2.80003C21.7848 2.90003 21.7848 2.90003 21.7848 3.00003C21.8848 2.90003 21.8848 2.90003 21.9848 2.80003H22.0848C22.3848 2.80003 22.7848 2.90003 23.0848 3.00003C22.9848 3.00003 22.8848 3.10003 22.8848 3.20003L22.7848 3.30003C23.0848 3.00003 23.3848 3.00003 23.5848 3.00003H23.6848H23.7848C24.1848 3.20003 24.5848 3.50003 24.7848 3.90003C24.8848 4.00003 24.9848 4.10003 24.9848 4.30003C24.7848 4.30003 24.6848 4.20003 24.4848 4.20003C24.3848 4.20003 24.2848 4.20003 24.0848 4.20003C23.9848 4.20003 23.9848 4.20003 23.8848 4.10003L23.7848 4.00003C23.7848 4.10003 23.7848 4.10003 23.7848 4.20003C23.6848 4.20003 23.5848 4.20003 23.4848 4.20003C23.3848 4.20003 23.2848 4.20003 23.1848 4.20003C23.0848 4.10003 22.9848 4.00003 22.9848 3.90003C22.9848 4.00003 22.9848 4.10003 22.9848 4.20003C22.9848 4.20003 22.9848 4.20003 22.8848 4.20003C22.5848 4.20003 22.3848 4.20003 22.0848 4.20003C21.9848 4.20003 21.9848 4.20003 21.9848 4.20003C21.8848 4.10003 21.7848 4.00003 21.6848 3.90003C21.6848 4.00003 21.6848 4.00003 21.6848 4.10003C21.6848 4.20003 21.6848 4.20003 21.6848 4.30003C21.6848 4.30003 21.6848 4.30003 21.5848 4.30003C21.2848 4.30003 20.9848 4.30003 20.7848 4.30003C20.6848 4.30003 20.5848 4.30003 20.5848 4.30003H20.4848C20.3848 4.20003 20.2848 4.20003 20.2848 4.10003C20.2848 4.20003 20.2848 4.20003 20.2848 4.30003C20.2848 4.30003 20.2848 4.40003 20.3848 4.40003C20.1848 4.40003 19.8848 4.40003 19.6848 4.50003C19.8848 4.50003 20.0848 4.50003 20.2848 4.60003C20.2848 4.60003 20.1848 4.60003 20.1848 4.70003H20.2848C20.4848 4.70003 20.6848 4.70003 20.7848 4.70003C20.7848 4.70003 20.7848 4.70003 20.8848 4.70003C21.2848 4.90003 21.6848 5.10003 21.9848 5.50003L21.8848 5.60003C21.9848 5.60003 22.0848 5.60003 22.1848 5.70003C22.1848 5.70003 22.2848 5.70003 22.2848 5.80003C22.4848 6.10003 22.6848 6.30003 22.7848 6.60003C22.6848 6.60003 22.6848 6.60003 22.5848 6.60003H22.4848C22.3848 6.60003 22.3848 6.60003 22.2848 6.60003C22.5848 6.70003 22.7848 6.90003 22.8848 7.10003L22.9848 7.20003C23.0848 7.50003 23.1848 7.80003 23.1848 8.10003C23.1848 8.30003 23.1848 8.60003 23.1848 8.80003V8.90003C22.9848 8.70003 22.7848 8.60003 22.5848 8.40003L22.4848 8.30003L22.3848 8.20003C22.3848 8.10003 22.3848 8.10003 22.3848 8.00003C22.3848 8.00003 22.2848 8.00003 22.2848 8.10003C22.2848 8.10003 22.2848 8.20003 22.1848 8.20003C22.0848 8.10003 21.8848 7.90003 21.7848 7.80003C21.7848 7.70003 21.7848 7.50003 21.8848 7.40003C21.8848 7.40003 21.7848 7.40003 21.7848 7.50003C21.7848 7.50003 21.7848 7.50003 21.6848 7.60003C21.6848 7.60003 21.6848 7.60003 21.6848 7.70003C21.6848 7.70003 21.6848 7.70003 21.6848 7.80003C21.4848 7.60003 21.2848 7.40003 21.0848 7.20003V7.10003C21.0848 6.90003 21.0848 6.80003 21.1848 6.70003C21.1848 6.70003 21.1848 6.70003 21.1848 6.60003C21.0848 6.70003 21.0848 6.80003 20.9848 6.90003C20.9848 6.90003 20.9848 6.90003 20.9848 7.00003C20.7848 6.70003 20.4848 6.50003 20.1848 6.30003V6.20003C20.1848 6.10003 20.1848 6.00003 20.1848 5.90003C20.1848 5.90003 20.1848 5.90003 20.1848 5.80003C20.1848 5.90003 20.0848 5.90003 20.0848 6.00003C20.0848 6.00003 20.0848 6.00003 20.0848 6.10003C20.0848 6.10003 20.0848 6.10003 19.9848 6.10003C19.7848 5.90003 19.5848 5.80003 19.3848 5.60003C19.3848 5.60003 19.3848 5.60003 19.2848 5.60003V5.70003C19.3848 5.90003 19.4848 6.20003 19.5848 6.40003C19.8848 7.30003 20.1848 8.10003 20.4848 9.00003C20.6848 9.70003 20.7848 10.4 20.9848 11.1C21.0848 11.5 21.1848 11.9 21.1848 12.3C21.1848 12.6 21.2848 12.9 21.2848 13.2C21.2848 13.5 21.3848 13.7 21.3848 14C21.3848 14.2 21.3848 14.4 21.4848 14.6C21.4848 14.9 21.4848 15.1 21.5848 15.4C21.5848 15.5 21.5848 15.6 21.5848 15.7C21.5848 16.2 21.5848 16.6 21.5848 17.1C21.5848 17.4 21.5848 17.7 21.5848 17.9C21.5848 18 21.5848 18.2 21.5848 18.3C21.5848 18.3 21.5848 18.3 21.5848 18.4C21.6848 18.2 21.6848 18.1 21.7848 17.9C21.9848 17.2 22.2848 16.5 22.6848 15.9C22.9848 15.3 23.3848 14.8 23.8848 14.4C24.4848 13.8 25.1848 13.3 26.0848 12.9C26.0848 12.9 26.0848 12.9 26.1848 12.9C25.9848 12.9 25.8848 12.9 25.6848 12.9C24.9848 13 24.2848 13.2 23.5848 13.5C23.2848 13.6 23.0848 13.8 22.7848 13.9C22.5848 14 22.4848 14.1 22.3848 14.3C22.3848 14.2 22.3848 14.1 22.4848 14.1C22.5848 14 22.6848 13.9 22.7848 13.9C22.7848 13.9 22.7848 13.9 22.8848 13.9C22.8848 13.9 22.8848 13.9 22.7848 13.9C22.7848 13.9 22.7848 13.9 22.6848 13.9C22.7848 13.8 22.8848 13.8 22.9848 13.7H23.0848C22.9848 13.7 22.9848 13.7 22.8848 13.7C22.7848 13.7 22.7848 13.7 22.6848 13.7L22.7848 13.6C22.8848 13.5 22.9848 13.5 23.0848 13.4C23.0848 13.4 23.0848 13.4 23.1848 13.4C23.0848 13.3 23.0848 13.3 22.9848 13.3C23.1848 13.2 23.2848 13.1 23.4848 13.1C23.4848 13.1 23.4848 13.1 23.5848 13.1C23.4848 13 23.4848 13 23.3848 13C23.5848 12.9 23.6848 12.9 23.8848 12.8C23.9848 12.8 24.0848 12.8 24.0848 12.8C24.0848 12.8 24.0848 12.8 24.1848 12.8C24.1848 12.7 24.0848 12.7 23.9848 12.6C24.2848 12.5 24.4848 12.5 24.6848 12.7C24.6848 12.6 24.6848 12.6 24.5848 12.6C24.7848 12.6 24.8848 12.6 24.9848 12.7C24.9848 12.7 25.0848 12.7 25.0848 12.8C25.0848 12.8 25.0848 12.7 24.9848 12.7C24.9848 12.7 24.9848 12.7 24.9848 12.6C25.0848 12.6 25.1848 12.6 25.2848 12.7C25.3848 12.7 25.4848 12.8 25.5848 12.9C25.5848 12.8 25.5848 12.8 25.5848 12.8C25.5848 12.8 25.5848 12.8 25.4848 12.8V12.7H25.3848C25.3848 12.7 25.3848 12.7 25.2848 12.7C25.1848 12.7 25.0848 12.6 24.9848 12.6C24.9848 12.5 25.0848 12.5 25.0848 12.4C24.9848 12.4 24.9848 12.5 24.8848 12.5H24.7848C24.5848 12.4 24.3848 12.4 24.1848 12.3C24.1848 12.3 24.1848 12.3 24.0848 12.3C24.1848 12.2 24.2848 12.2 24.4848 12.2C24.4848 12.2 24.4848 12.2 24.4848 12.1H24.5848H24.6848L24.5848 12C24.5848 12 24.5848 12 24.4848 12C24.5848 12 24.7848 12 24.8848 12C24.8848 12 24.8848 12 24.8848 11.9C24.9848 11.9 25.0848 11.9 25.1848 12C25.1848 12 25.1848 12 25.2848 12C25.2848 12 25.2848 12 25.1848 11.9C25.1848 11.9 25.1848 11.9 25.2848 11.9H25.3848H25.4848H25.5848C25.5848 11.9 25.5848 11.9 25.6848 12C25.6848 12 25.6848 12 25.7848 12.1C25.7848 12 25.7848 12 25.7848 12C25.8848 12 25.8848 12.1 25.9848 12.1C26.0848 12.2 26.0848 12.2 26.0848 12.3V12.2C26.0848 12.1 25.9848 12.1 25.9848 12C25.9848 11.9 25.8848 11.9 25.8848 11.8L25.7848 11.7L25.8848 11.6C25.8848 11.6 25.8848 11.6 25.7848 11.6H25.6848H25.5848C25.4848 11.5 25.3848 11.4 25.3848 11.4L25.2848 11.3C25.3848 11.3 25.3848 11.3 25.4848 11.2L25.5848 11.1C25.4848 11.1 25.2848 11.1 25.1848 11.1H25.0848C24.8848 10.9 24.5848 10.6 24.2848 10.4C24.3848 10.4 24.3848 10.3 24.4848 10.3C24.5848 10.3 24.6848 10.3 24.8848 10.4C24.8848 10.4 24.8848 10.4 24.9848 10.4V10.3C25.0848 10.3 25.1848 10.4 25.2848 10.4C25.2848 10.4 25.2848 10.4 25.3848 10.4V10.3C25.3848 10.3 25.3848 10.2 25.2848 10.2C25.2848 10.2 25.2848 10.2 25.1848 10.1C25.1848 10.1 25.1848 10.1 25.0848 10C25.1848 10 25.1848 10 25.2848 10C25.3848 10 25.3848 10.1 25.4848 10.1C25.5848 10.1 25.5848 10.2 25.6848 10.2V10.1C25.6848 10.1 25.6848 10.1 25.6848 10H25.7848C25.7848 10 25.8848 10 25.8848 10.1L25.9848 10.2L26.0848 10.3C26.0848 10.3 26.0848 10.4 26.1848 10.4V10.3C26.2848 10.3 26.2848 10.4 26.3848 10.4C26.4848 10.5 26.4848 10.5 26.5848 10.6C26.5848 10.7 26.6848 10.8 26.6848 10.8C26.6848 10.7 26.6848 10.7 26.6848 10.6C26.8848 10.8 26.8848 11 26.8848 11.2C26.9848 11.2 26.9848 11.2 27.0848 11C27.0848 11.1 27.1848 11.2 27.1848 11.3C27.1848 11.4 27.1848 11.5 27.1848 11.6C27.2848 11.6 27.2848 11.5 27.3848 11.5V11.6V11.7H27.4848C27.4848 11.7 27.4848 11.7 27.3848 11.6C27.3848 11.6 27.3848 11.6 27.3848 11.5C27.3848 11.5 27.3848 11.5 27.3848 11.4C27.3848 11.3 27.3848 11.2 27.4848 11.1C27.5848 11.1 27.5848 11.2 27.6848 11.2C27.6848 11.1 27.5848 11.1 27.5848 11C27.5848 10.9 27.4848 10.9 27.4848 10.8C27.6848 10.5 27.6848 10.2 27.6848 9.90003C27.6848 9.90003 27.6848 9.90003 27.7848 9.90003C27.8848 10 27.9848 10.1 28.0848 10.2C28.1848 10.3 28.2848 10.5 28.2848 10.7C28.2848 10.9 28.3848 11.1 28.3848 11.2C28.3848 11.4 28.3848 11.7 28.3848 11.9C28.3848 12 28.3848 12.1 28.3848 12.2C28.3848 12.2 28.3848 12.2 28.3848 12.3C28.4848 12.1 28.6848 12.1 28.8848 12C29.1848 11.9 29.4848 11.9 29.7848 12C29.8848 12 29.8848 12 29.9848 12.1C29.9848 12.1 30.0848 12.1 30.0848 12.2C30.0848 12.3 29.9848 12.3 29.8848 12.3C29.7848 12.3 29.7848 12.3 29.6848 12.3C29.5848 12.3 29.4848 12.3 29.3848 12.3C29.3848 12.3 29.3848 12.3 29.5848 12.4C29.4848 12.4 29.4848 12.4 29.3848 12.5C29.2848 12.5 29.2848 12.5 29.1848 12.5C29.1848 12.5 29.1848 12.5 29.2848 12.5C29.1848 12.5 29.1848 12.6 28.9848 12.5C28.9848 12.5 28.9848 12.5 28.9848 12.6C28.9848 12.6 28.9848 12.6 29.0848 12.6C29.2848 12.6 29.3848 12.7 29.5848 12.8C29.6848 12.8 29.6848 12.8 29.7848 12.9C30.2848 13.1 30.5848 13.5 30.8848 13.9C30.9848 14.1 31.0848 14.3 31.0848 14.6C31.0848 14.7 31.0848 14.7 31.0848 14.8C30.9848 14.8 30.8848 14.7 30.8848 14.6C30.7848 14.5 30.7848 14.5 30.7848 14.4C30.7848 14.4 30.7848 14.4 30.7848 14.3V14.4C30.6848 14.3 30.6848 14.3 30.5848 14.2C30.5848 14.2 30.5848 14.2 30.5848 14.1C30.5848 14.2 30.5848 14.3 30.6848 14.3C30.6848 14.3 30.6848 14.3 30.6848 14.4C30.6848 14.4 30.6848 14.4 30.5848 14.4C30.4848 14.3 30.3848 14.2 30.2848 14.2C30.2848 14.2 30.2848 14.2 30.1848 14.1C30.1848 14.2 30.1848 14.2 30.1848 14.3C29.9848 14.2 29.9848 14.1 29.8848 14C29.8848 14.1 29.8848 14.1 29.8848 14.2C29.6848 14.1 29.5848 14 29.4848 13.9C29.6848 14.2 29.8848 14.5 29.9848 14.8C29.9848 14.8 29.9848 14.8 29.9848 14.9C29.9848 14.9 29.9848 14.9 29.8848 14.9H29.7848C29.7848 14.9 29.7848 14.9 29.8848 14.9C29.9848 14.9 29.9848 15 30.0848 15L30.1848 15.1C30.1848 15.3 30.2848 15.6 30.2848 15.8C30.2848 15.9 30.2848 15.9 30.2848 16C30.1848 15.9 30.0848 15.9 29.9848 15.8C29.9848 15.8 29.9848 15.8 29.8848 15.8C30.0848 16 30.0848 16.2 30.1848 16.5V16.6C30.0848 16.8 30.0848 17 29.9848 17.1C29.8848 17.4 29.6848 17.6 29.4848 17.8C29.4848 17.8 29.4848 17.8 29.3848 17.9C29.3848 17.9 29.3848 17.8 29.2848 17.8C29.1848 17.7 29.1848 17.5 29.2848 17.4C29.2848 17.3 29.2848 17.3 29.3848 17.2C29.3848 17.2 29.3848 17.2 29.3848 17.1C29.2848 17.1 29.2848 17.2 29.2848 17.2C29.2848 17.1 29.2848 17 29.2848 16.9C29.2848 16.8 29.2848 16.7 29.3848 16.6L29.2848 16.7L29.1848 16.8C29.1848 16.8 29.1848 16.9 29.0848 16.9C29.0848 16.9 29.0848 17 28.9848 17C28.9848 16.9 28.9848 16.7 28.9848 16.6C28.9848 16.5 28.9848 16.5 28.9848 16.4C28.9848 16.4 28.8848 16.4 28.8848 16.5C28.8848 16.5 28.8848 16.5 28.7848 16.6C28.7848 16.4 28.7848 16.3 28.8848 16.1C28.8848 16.1 28.8848 16.1 28.8848 16C28.7848 16 28.7848 16.1 28.6848 16.2C28.6848 16.1 28.6848 15.9 28.6848 15.8C28.6848 15.7 28.6848 15.6 28.7848 15.4C28.6848 15.4 28.6848 15.5 28.5848 15.5C28.4848 15.3 28.5848 15 28.6848 14.8C28.5848 14.8 28.5848 14.9 28.5848 14.9C28.5848 14.9 28.5848 14.9 28.4848 14.9C28.4848 14.8 28.4848 14.7 28.5848 14.5V14.4L28.4848 14.5L28.3848 14.6C28.3848 14.5 28.2848 14.3 28.3848 14L28.2848 14.1C28.2848 14.1 28.2848 14.1 28.2848 14.2C28.2848 14.5 28.2848 14.7 28.1848 15H28.0848H27.9848C27.9848 15 28.0848 15.1 28.0848 15.2V15.3C27.9848 15.5 27.8848 15.7 27.7848 15.9C27.7848 15.9 27.7848 15.9 27.7848 15.8C27.7848 15.8 27.7848 15.8 27.7848 15.7C27.7848 15.7 27.7848 15.7 27.7848 15.6C27.7848 15.6 27.7848 15.6 27.7848 15.5C27.7848 15.7 27.7848 15.9 27.6848 16C27.6848 16 27.6848 16.1 27.5848 16.1C27.2848 16.4 26.9848 16.5 26.5848 16.6C26.5848 16.5 26.5848 16.5 26.6848 16.4C26.7848 16.3 26.7848 16.2 26.8848 16.1C26.8848 16.1 26.8848 16.1 26.9848 16H26.8848C26.9848 15.9 26.9848 15.9 27.0848 15.8C27.0848 15.8 27.0848 15.8 27.0848 15.7C26.9848 15.7 26.8848 15.8 26.7848 15.8C26.7848 15.7 26.7848 15.7 26.8848 15.6C26.8848 15.5 26.9848 15.5 26.9848 15.4H26.8848C26.8848 15.3 26.9848 15.2 27.0848 15.1C27.0848 15.1 27.0848 15.1 27.1848 15C27.0848 15 27.0848 15 26.9848 15C27.0848 14.9 27.0848 14.7 27.2848 14.6C27.2848 14.6 27.2848 14.6 27.3848 14.5H27.2848C27.2848 14.5 27.2848 14.5 27.1848 14.5C27.1848 14.4 27.2848 14.3 27.3848 14.2C27.3848 14.2 27.4848 14.2 27.4848 14.1H27.3848H27.2848C27.2848 14.1 27.2848 14 27.3848 14L27.4848 13.9L27.5848 13.8H27.4848H27.3848C27.3848 13.7 27.3848 13.7 27.4848 13.6C27.4848 13.5 27.5848 13.5 27.5848 13.4C27.4848 13.4 27.4848 13.4 27.4848 13.4C27.4848 13.3 27.5848 13.2 27.6848 13.1C27.6848 13.1 27.6848 13.1 27.6848 13H27.5848C27.5848 12.9 27.5848 12.9 27.6848 12.8C27.6848 12.8 27.6848 12.8 27.5848 12.8C27.3848 12.9 27.1848 13 26.9848 13.1C26.0848 13.6 25.2848 14.3 24.6848 15.2C24.2848 15.8 23.9848 16.4 23.6848 17C23.4848 17.6 23.2848 18.2 23.0848 18.9C22.9848 19.2 22.9848 19.5 22.8848 19.9C22.8848 20.2 22.7848 20.5 22.7848 20.7C22.7848 21 22.7848 21.2 22.7848 21.5V21.6H22.8848C23.4848 21.8 24.1848 22 24.7848 22.2C25.1848 22.4 25.5848 22.6 25.9848 22.8C26.2848 23 26.5848 23.2 26.8848 23.4L26.9848 23.5C18.2848 23.3 10.4848 23.3 2.78484 23.3ZM10.2848 6.80003C10.4848 7.00003 10.5848 7.10003 10.7848 7.30003C10.7848 7.30003 10.7848 7.30003 10.7848 7.40003C10.6848 7.40003 10.6848 7.40003 10.5848 7.50003H10.6848H10.7848C10.8848 7.50003 10.8848 7.50003 10.8848 7.60003C10.9848 7.90003 11.0848 8.10003 11.1848 8.40003C11.1848 8.40003 11.1848 8.40003 11.1848 8.50003C11.0848 8.50003 11.0848 8.50003 10.9848 8.50003C11.0848 8.50003 11.1848 8.60003 11.1848 8.70003C11.1848 8.70003 11.1848 8.70003 11.1848 8.80003C11.1848 8.90003 11.1848 8.90003 11.1848 9.00003C11.1848 9.20003 11.1848 9.40003 11.1848 9.50003C11.0848 9.50003 11.0848 9.50003 10.9848 9.40003L11.0848 9.50003V9.60003C11.0848 9.70003 10.9848 9.80003 10.9848 9.90003H10.8848C10.8848 9.90003 10.8848 9.90003 10.8848 10V10.1V10.2C10.7848 10.4 10.6848 10.6 10.5848 10.7V10.6C10.4848 10.3 10.3848 10 10.3848 9.70003V9.60003C10.3848 9.50003 10.4848 9.30003 10.4848 9.20003C10.3848 9.20003 10.2848 9.30003 10.2848 9.40003C10.2848 9.30003 10.1848 9.10003 10.1848 9.00003C10.1848 8.90003 10.1848 8.90003 10.1848 8.80003C10.1848 8.80003 10.1848 8.80003 10.1848 8.70003H10.0848C10.0848 8.50003 9.98484 8.30003 9.98484 8.00003V7.90003C9.98484 7.80003 9.98484 7.70003 9.98484 7.70003C9.98484 7.70003 9.98484 7.70003 9.98484 7.60003C9.98484 7.60003 9.88484 7.60003 9.88484 7.70003V7.60003C9.88484 7.50003 9.78484 7.30003 9.78484 7.20003C9.78484 7.30003 9.78484 7.30003 9.78484 7.40003C9.68484 7.60003 9.68484 7.90003 9.68484 8.20003C9.68484 8.40003 9.58484 8.60003 9.58484 8.80003C9.58484 9.00003 9.58484 9.20003 9.48484 9.40003C9.48484 9.60003 9.48484 9.70003 9.48484 9.90003C9.48484 10.2 9.48484 10.5 9.48484 10.8C9.48484 11.6 9.48484 12.4 9.58484 13.2C9.58484 13.5 9.58484 13.8 9.68484 14.1C9.68484 14.4 9.78484 14.7 9.78484 15C9.78484 15.3 9.88484 15.6 9.88484 15.9C9.98484 16.3 9.98484 16.7 10.0848 17.1C10.2848 17.9 10.4848 18.8 10.6848 19.6C10.7848 20 10.8848 20.3 11.0848 20.7V20.8C11.6848 20.7 12.2848 20.7 12.9848 20.7C13.2848 20 13.4848 19.4 13.7848 18.7C13.6848 18.7 13.6848 18.7 13.5848 18.7C13.4848 18.7 13.4848 18.7 13.3848 18.7V18.6C13.5848 18.6 13.6848 18.6 13.8848 18.6C13.8848 18.5 15.1848 15.4 15.3848 14.8C15.3848 14.8 15.3848 14.8 15.2848 14.8C15.0848 14.7 14.8848 14.6 14.7848 14.5C14.6848 14.4 14.5848 14.3 14.4848 14.1C14.4848 14.1 14.4848 14.1 14.3848 14.1C14.0848 14.3 13.7848 14.3 13.4848 14C13.3848 13.9 13.2848 13.8 13.2848 13.6C13.1848 13.6 13.1848 13.7 13.0848 13.7C12.9848 13.7 12.9848 13.8 12.8848 13.8C12.7848 13.8 12.7848 13.8 12.6848 13.8C12.7848 13.6 12.7848 13.5 12.8848 13.3H12.9848C13.0848 13.3 13.1848 13.3 13.1848 13.3C13.2848 13.3 13.4848 13.3 13.5848 13.3C13.6848 13.3 13.8848 13.3 13.9848 13.3C14.0848 13.3 14.2848 13.3 14.3848 13.3C14.4848 13.3 14.6848 13.3 14.7848 13.3C14.9848 13.3 15.1848 13.3 15.3848 13.2C15.5848 13.2 15.7848 13.2 15.9848 13.1H16.0848C16.0848 13.1 16.1848 13.1 16.1848 13C16.1848 12.9 16.2848 12.9 16.2848 12.8C16.2848 12.8 16.2848 12.8 16.2848 12.7C16.2848 12.7 16.3848 12.6 16.3848 12.7L16.4848 12.8V12.9C16.4848 13 16.3848 13 16.3848 13.1C16.3848 13.1 16.3848 13.1 16.3848 13.2C16.4848 13.3 16.4848 13.3 16.5848 13.4C16.6848 13.5 16.6848 13.5 16.7848 13.6C16.8848 13.7 16.8848 13.7 16.9848 13.8C17.0848 13.9 17.0848 13.9 17.1848 14C17.2848 14.1 17.2848 14.1 17.3848 14.2C17.4848 14.3 17.4848 14.3 17.5848 14.4C17.6848 14.5 17.6848 14.5 17.7848 14.6C17.8848 14.7 17.8848 14.7 17.9848 14.8C18.0848 14.9 18.0848 14.9 18.1848 15C18.2848 15.1 18.2848 15.1 18.3848 15.2C18.4848 15.3 18.4848 15.3 18.5848 15.4C18.6848 15.5 18.6848 15.5 18.7848 15.6C18.8848 15.7 18.8848 15.7 18.9848 15.8C18.8848 15.9 18.8848 16.1 18.7848 16.2C18.6848 16.2 18.5848 16.1 18.5848 16C18.4848 15.9 18.4848 15.8 18.4848 15.7C18.4848 15.7 18.4848 15.7 18.3848 15.7C18.1848 15.8 18.0848 15.8 17.8848 15.8C17.5848 15.8 17.3848 15.5 17.2848 15.3C17.2848 15.3 17.2848 15.3 17.2848 15.2C17.1848 15.2 16.9848 15.3 16.8848 15.3C16.6848 15.3 16.3848 15.3 16.1848 15.2C16.1848 15.2 16.1848 15.2 16.0848 15.2C15.5848 16.4 15.0848 17.6 14.6848 18.9C14.7848 18.9 14.7848 18.9 14.8848 18.9C14.9848 18.9 14.9848 18.9 15.0848 18.9C15.1848 18.9 15.2848 18.9 15.2848 18.9C15.3848 18.9 15.3848 18.9 15.4848 18.9C15.6848 18.7 15.7848 18.5 15.9848 18.3C16.1848 18.1 16.2848 17.9 16.4848 17.7C16.6848 17.5 16.7848 17.3 16.9848 17.1C16.9848 17.1 16.9848 17.1 17.0848 17.1H17.1848C17.6848 17.1 18.1848 17.1 18.6848 17.1C18.6848 17.1 18.6848 17.1 18.7848 17.1C18.7848 17.1 18.7848 17.1 18.8848 17C18.9848 17 18.9848 17.1 18.9848 17.1C18.8848 17.2 18.8848 17.3 18.7848 17.3C18.7848 17.3 18.7848 17.4 18.6848 17.4C18.5848 17.6 18.5848 17.8 18.4848 18C18.2848 18.5 17.9848 19 17.6848 19.4C17.6848 19.4 17.6848 19.4 17.6848 19.5C17.6848 19.6 17.6848 19.8 17.7848 19.9C17.7848 20 17.7848 20 17.7848 20.1C17.7848 20.1 17.7848 20.1 17.8848 20.1C18.2848 20.3 18.6848 20.6 18.9848 20.8C18.9848 20.8 19.0848 20.8 19.1848 20.9C19.3848 20.9 19.5848 20.9 19.7848 21C20.0848 21 20.3848 21.1 20.6848 21.1C20.6848 21.1 20.6848 21.1 20.7848 21.1C20.7848 20.8 20.8848 20.6 20.8848 20.3C20.8848 20.1 20.9848 19.8 20.9848 19.6C20.9848 19.4 21.0848 19.2 21.0848 19C21.0848 18.8 21.0848 18.6 21.1848 18.4C21.1848 18.1 21.1848 17.8 21.2848 17.5C21.2848 17.2 21.2848 16.9 21.2848 16.6C21.2848 15.9 21.2848 15.3 21.2848 14.6C21.2848 14.2 21.2848 13.9 21.1848 13.5C21.1848 13.2 21.0848 12.9 21.0848 12.5C21.0848 12.2 20.9848 11.8 20.9848 11.5C20.9848 11.1 20.8848 10.8 20.7848 10.4C20.6848 9.90003 20.5848 9.40003 20.4848 8.90003C20.2848 8.00003 20.0848 7.20003 19.7848 6.30003C19.6848 6.00003 19.5848 5.70003 19.4848 5.40003C19.4848 5.40003 19.4848 5.40003 19.4848 5.30003V5.40003V5.50003V5.60003V5.70003V5.80003C18.6848 6.00003 18.6848 6.00003 18.6848 6.00003C18.6848 6.00003 18.6848 6.00003 18.5848 6.00003C18.5848 6.00003 18.5848 6.00003 18.5848 6.10003C18.6848 6.20003 18.6848 6.30003 18.6848 6.50003C18.6848 6.60003 18.6848 6.60003 18.6848 6.70003C18.6848 6.90003 18.6848 7.00003 18.6848 7.20003C18.6848 7.20003 18.6848 7.20003 18.6848 7.30003C18.5848 7.30003 18.5848 7.30003 18.4848 7.30003L18.5848 7.40003V7.50003C18.5848 7.70003 18.5848 7.90003 18.5848 8.10003C18.3848 8.00003 18.3848 8.00003 18.2848 8.00003C18.3848 8.10003 18.3848 8.20003 18.4848 8.40003C18.4848 8.50003 18.5848 8.60003 18.5848 8.70003C18.5848 9.00003 18.5848 9.40003 18.4848 9.70003C18.4848 9.70003 18.4848 9.70003 18.4848 9.80003C18.4848 9.80003 18.4848 9.80003 18.4848 9.90003C18.2848 9.70003 18.1848 9.60003 17.9848 9.40003V9.30003C17.9848 9.20003 17.9848 9.20003 17.9848 9.10003C17.8848 9.10003 17.8848 9.20003 17.8848 9.20003C17.7848 9.10003 17.7848 8.90003 17.6848 8.80003V8.70003C17.6848 8.70003 17.6848 8.60003 17.7848 8.60003C17.7848 8.60003 17.7848 8.50003 17.8848 8.50003C17.7848 8.50003 17.7848 8.50003 17.6848 8.60003C17.5848 8.40003 17.5848 8.10003 17.4848 7.90003V7.80003C17.5848 7.70003 17.6848 7.60003 17.7848 7.50003C17.6848 7.50003 17.5848 7.50003 17.4848 7.50003V7.40003C17.4848 7.20003 17.4848 7.10003 17.5848 6.90003C17.5848 6.80003 17.6848 6.60003 17.6848 6.50003C17.6848 6.50003 17.6848 6.40003 17.7848 6.40003C17.8848 6.40003 17.8848 6.30003 17.9848 6.30003C17.9848 6.30003 17.9848 6.30003 18.0848 6.30003C17.8848 6.00003 17.8848 6.00003 17.7848 6.00003C17.7848 6.00003 17.7848 6.00003 17.6848 6.00003C17.6848 6.00003 17.6848 6.00003 17.6848 5.90003C17.7848 5.80003 17.7848 5.60003 17.8848 5.50003C17.9848 5.40003 17.9848 5.30003 18.0848 5.30003C18.0848 5.30003 17.9848 5.30003 17.9848 5.40003C17.7848 5.60003 17.5848 5.70003 17.3848 5.90003C17.3848 5.80003 17.3848 5.80003 17.3848 5.70003C17.3848 5.70003 17.3848 5.70003 17.3848 5.80003C17.3848 5.90003 17.2848 6.00003 17.2848 6.10003C17.2848 6.10003 17.2848 6.20003 17.1848 6.20003C16.9848 6.40003 16.8848 6.60003 16.6848 6.90003C16.6848 6.90003 16.6848 6.90003 16.6848 7.00003C16.5848 7.00003 16.5848 6.90003 16.4848 6.90003C16.4848 6.90003 16.4848 6.90003 16.4848 7.00003C16.4848 7.10003 16.4848 7.10003 16.4848 7.20003C16.6848 7.00003 16.6848 7.00003 16.6848 7.00003C16.5848 7.20003 16.4848 7.40003 16.3848 7.60003C16.3848 7.60003 16.3848 7.60003 16.3848 7.70003L16.2848 7.60003L16.1848 7.50003L16.0848 7.40003C16.0848 7.40003 16.0848 7.40003 16.0848 7.50003C16.1848 7.70003 16.1848 7.90003 16.1848 8.10003V8.20003C15.9848 8.70003 15.8848 9.10003 15.6848 9.60003C15.4848 9.30003 15.3848 9.10003 15.2848 8.80003V8.70003C15.2848 8.60003 15.2848 8.60003 15.3848 8.50003C15.3848 8.50003 15.3848 8.50003 15.3848 8.40003C15.2848 8.40003 15.2848 8.40003 15.1848 8.50003V8.40003C15.1848 8.30003 15.0848 8.10003 15.0848 8.00003V7.90003C15.1848 7.80003 15.2848 7.70003 15.2848 7.70003C15.1848 7.70003 15.0848 7.70003 14.9848 7.80003C14.9848 7.80003 14.9848 7.80003 14.9848 7.70003C14.9848 7.60003 14.9848 7.50003 14.9848 7.40003C14.9848 7.20003 15.0848 6.90003 15.1848 6.70003C15.1848 6.70003 15.1848 6.60003 15.2848 6.60003C15.3848 6.50003 15.5848 6.40003 15.7848 6.40003C15.6848 6.40003 15.6848 6.30003 15.5848 6.30003C15.4848 6.30003 15.4848 6.30003 15.3848 6.30003C15.3848 6.30003 15.3848 6.20003 15.4848 6.20003C15.5848 6.00003 15.5848 5.90003 15.6848 5.80003C15.8848 5.50003 16.1848 5.30003 16.3848 5.10003H16.4848C16.5848 5.10003 16.6848 5.10003 16.7848 5.20003C16.7848 5.20003 16.7848 5.20003 16.8848 5.20003C16.8848 5.10003 16.7848 5.00003 16.7848 5.00003C16.6848 5.00003 16.6848 5.00003 16.6848 5.00003C16.4848 5.10003 16.2848 5.10003 15.9848 5.20003C15.9848 5.20003 15.9848 5.20003 15.8848 5.20003C15.8848 5.10003 15.8848 5.10003 15.7848 5.00003V5.10003C15.7848 5.20003 15.7848 5.20003 15.6848 5.30003C15.6848 5.30003 15.6848 5.40003 15.5848 5.40003C15.3848 5.50003 15.1848 5.60003 14.9848 5.70003C14.9848 5.60003 14.9848 5.40003 14.9848 5.30003C14.9848 5.30003 14.9848 5.30003 14.9848 5.40003C14.8848 5.60003 14.7848 5.80003 14.6848 5.90003L14.5848 6.00003C14.4848 6.00003 14.3848 6.00003 14.2848 6.00003C14.2848 6.10003 14.3848 6.10003 14.3848 6.20003C14.2848 6.20003 14.2848 6.20003 14.2848 6.30003C14.2848 6.30003 14.2848 6.30003 14.3848 6.30003C14.4848 6.30003 14.4848 6.30003 14.5848 6.40003C14.5848 6.40003 14.5848 6.40003 14.6848 6.50003C14.6848 6.70003 14.7848 7.00003 14.8848 7.20003C14.8848 7.20003 14.8848 7.20003 14.7848 7.20003C14.3848 7.00003 13.9848 6.90003 13.6848 6.70003C13.6848 6.70003 13.5848 6.70003 13.5848 6.60003L13.4848 6.50003C13.4848 6.50003 13.3848 6.50003 13.3848 6.60003V6.50003C13.3848 6.50003 13.3848 6.50003 13.3848 6.40003C13.3848 6.30003 13.2848 6.30003 13.2848 6.20003C13.2848 6.30003 13.2848 6.40003 13.2848 6.50003C13.0848 6.40003 12.8848 6.40003 12.6848 6.40003C12.6848 6.40003 12.6848 6.40003 12.5848 6.40003C12.5848 6.30003 12.4848 6.30003 12.4848 6.20003V6.30003C12.1848 6.30003 11.9848 6.20003 11.6848 6.20003C11.6848 6.30003 11.5848 6.30003 11.5848 6.40003C11.5848 6.40003 11.5848 6.40003 11.6848 6.40003C11.7848 6.40003 11.7848 6.30003 11.8848 6.30003H11.9848C12.1848 6.40003 12.4848 6.50003 12.6848 6.70003C12.5848 6.90003 12.6848 7.00003 12.7848 7.10003C12.7848 7.10003 12.7848 7.10003 12.7848 7.20003H12.6848C12.5848 7.20003 12.4848 7.30003 12.4848 7.30003H12.5848C12.6848 7.30003 12.8848 7.30003 12.9848 7.40003C12.9848 7.40003 13.0848 7.40003 13.0848 7.50003C13.2848 7.80003 13.3848 8.10003 13.3848 8.40003C13.2848 8.40003 13.2848 8.40003 13.1848 8.40003C13.2848 8.40003 13.3848 8.50003 13.3848 8.50003C13.3848 8.50003 13.3848 8.50003 13.3848 8.60003C13.3848 8.80003 13.3848 8.90003 13.3848 9.10003H13.2848C13.2848 9.20003 13.3848 9.20003 13.3848 9.30003V9.40003C13.3848 9.60003 13.2848 9.90003 13.1848 10.1C12.9848 9.70003 12.7848 9.40003 12.5848 9.00003V8.90003C12.5848 8.70003 12.5848 8.50003 12.5848 8.40003C12.5848 8.40003 12.5848 8.40003 12.5848 8.30003C12.4848 8.40003 12.4848 8.50003 12.3848 8.60003C12.3848 8.60003 12.3848 8.60003 12.3848 8.50003C12.2848 8.40003 12.1848 8.20003 12.0848 8.10003V8.00003V7.90003C11.9848 7.90003 11.9848 8.00003 11.9848 8.00003C11.7848 7.80003 11.6848 7.60003 11.4848 7.50003C11.4848 7.50003 11.4848 7.50003 11.3848 7.40003C11.2848 7.30003 11.2848 7.20003 11.1848 7.10003C11.1848 7.10003 11.1848 7.20003 11.1848 7.30003C10.6848 7.00003 10.4848 6.90003 10.2848 6.80003ZM17.9848 20.7C17.4848 20.4 16.9848 20.1 16.5848 19.8C16.4848 19.8 16.4848 19.9 16.3848 19.9C16.2848 19.9 16.2848 20 16.1848 20C16.0848 20 16.0848 20.1 15.9848 20.1C15.8848 20.1 15.8848 20.2 15.7848 20.2C15.9848 20.3 16.1848 20.4 16.2848 20.5H16.3848C16.4848 20.5 16.5848 20.5 16.5848 20.5C16.7848 20.5 16.8848 20.5 17.0848 20.5C17.2848 20.5 17.3848 20.5 17.5848 20.5C17.7848 20.7 17.8848 20.7 17.9848 20.7ZM15.9848 18.5C15.9848 18.4 15.9848 18.4 15.9848 18.5C16.1848 18.1 16.3848 17.7 16.3848 17.3C16.3848 17.2 16.3848 17.1 16.4848 17C16.4848 17 16.4848 17 16.3848 17.1C16.0848 17.4 15.8848 17.7 15.5848 18C15.4848 18.2 15.2848 18.3 15.1848 18.5C15.1848 18.5 15.1848 18.5 15.1848 18.6C15.4848 18.5 15.6848 18.5 15.9848 18.5ZM14.9848 19.7C15.0848 19.6 15.1848 19.6 15.1848 19.5C15.1848 19.3 15.1848 19.2 15.0848 19C15.0848 18.8 15.0848 18.7 14.9848 18.5H14.8848C14.6848 18.7 14.4848 19 14.2848 19.2C14.5848 19.5 14.7848 19.6 14.9848 19.7ZM13.6848 20.2C13.8848 20.2 13.9848 20.2 14.0848 20.2H14.1848C14.3848 20.1 14.5848 20 14.8848 19.9C14.8848 19.9 14.3848 19.6 14.3848 19.5C14.2848 19.5 13.6848 20.1 13.6848 20.2ZM15.0848 20.3C14.6848 20.3 14.3848 20.3 14.0848 20.3C13.8848 20.3 13.7848 20.3 13.5848 20.3H13.4848C13.3848 20.4 13.3848 20.4 13.2848 20.5C13.7848 20.5 14.2848 20.5 14.8848 20.5C14.9848 20.5 15.0848 20.4 15.0848 20.3ZM14.2848 19.2C14.3848 19.1 14.3848 19.1 14.3848 19.1C14.4848 18.9 14.6848 18.8 14.7848 18.6C14.7848 18.6 14.7848 18.6 14.7848 18.5C14.5848 18.5 14.2848 18.5 14.0848 18.5C13.9848 18.6 13.9848 18.8 13.9848 18.9C13.9848 19 14.0848 19.1 14.2848 19.2ZM13.2848 20.3C13.6848 19.9 14.0848 19.4 14.0848 19.3C13.9848 19.3 13.9848 19.2 13.8848 19.2C13.7848 19.2 13.7848 19.1 13.6848 19.1C13.5848 19.5 13.3848 19.9 13.2848 20.3ZM15.3848 19C15.4848 18.9 15.4848 18.9 15.4848 18.9C15.4848 18.9 15.4848 18.9 15.5848 18.9C15.5848 18.8 15.5848 18.7 15.5848 18.6H15.4848H15.3848H15.2848C15.2848 18.6 15.2848 18.6 15.2848 18.7C15.2848 18.7 15.2848 18.7 15.2848 18.8C15.2848 18.8 15.2848 18.8 15.2848 18.9C15.2848 18.9 15.2848 18.9 15.2848 19C15.2848 19 15.2848 19 15.2848 19.1C15.2848 19.1 15.2848 19.1 15.2848 19.2C15.2848 19.2 15.2848 19.2 15.2848 19.3C15.2848 19.3 15.2848 19.3 15.2848 19.4C15.2848 19.4 15.2848 19.4 15.2848 19.5C15.2848 19.5 15.2848 19.5 15.2848 19.6C15.2848 19.6 15.2848 19.6 15.2848 19.7C15.2848 19.7 15.2848 19.7 15.2848 19.8C15.3848 19.8 15.4848 19.6 15.4848 19.5C15.4848 19.1 15.4848 19.1 15.3848 19ZM15.9848 20.6C15.7848 20.5 15.6848 20.4 15.5848 20.3H15.4848C15.3848 20.4 15.3848 20.5 15.2848 20.5C15.4848 20.6 15.6848 20.6 15.9848 20.6ZM17.0848 19.9C17.0848 19.7 17.0848 19.6 16.9848 19.4C16.8848 19.5 16.7848 19.6 16.7848 19.7C16.8848 19.7 16.9848 19.8 17.0848 19.9ZM15.6848 18.6C15.6848 18.7 15.6848 18.8 15.6848 18.9C15.7848 18.8 15.7848 18.7 15.8848 18.6C15.7848 18.6 15.7848 18.6 15.6848 18.6Z" fill="#003887"/>
</g>
<defs>
<clipPath id="clip0_33305_45">
<rect width="30" height="23.3" fill="white" transform="translate(0.684814)"/>
</clipPath>
</defs>
</svg>
