<svg width="27" height="27" viewBox="0 0 27 27" fill="none" xmlns="http://www.w3.org/2000/svg">
<g clip-path="url(#clip0_33303_40)">
<path d="M13.4997 0C6.0444 0 0 6.04412 0 13.4997C0 20.9553 6.0444 27 13.5 27C20.9556 27 27 20.9562 27 13.4997C27 6.04329 20.9562 0 13.4997 0ZM19.6908 19.4708C19.6333 19.5653 19.5577 19.6475 19.4684 19.7127C19.3791 19.7779 19.2778 19.8248 19.1703 19.8509C19.0628 19.8769 18.9512 19.8814 18.842 19.8643C18.7327 19.8471 18.6279 19.8085 18.5336 19.7508C15.3636 17.8139 11.3732 17.3756 6.67418 18.4503C6.56591 18.4765 6.45351 18.481 6.3435 18.4634C6.23349 18.4458 6.12807 18.4066 6.03335 18.348C5.93863 18.2893 5.8565 18.2124 5.79173 18.1218C5.72696 18.0312 5.68085 17.9286 5.65605 17.82C5.63126 17.7113 5.62829 17.5989 5.64731 17.4891C5.66633 17.3794 5.70696 17.2745 5.76685 17.1805C5.82674 17.0866 5.90469 17.0055 5.99618 16.9419C6.08767 16.8784 6.19087 16.8336 6.2998 16.8103C11.4424 15.634 15.8537 16.139 19.4119 18.3133C19.5062 18.371 19.5883 18.4467 19.6534 18.536C19.7185 18.6254 19.7653 18.7268 19.7912 18.8343C19.8171 18.9417 19.8216 19.0533 19.8043 19.1625C19.7871 19.2717 19.7485 19.3765 19.6908 19.4708ZM21.3433 15.7953C21.2711 15.9132 21.1763 16.0158 21.0644 16.0971C20.9525 16.1783 20.8256 16.2367 20.6911 16.2689C20.5566 16.3011 20.4171 16.3064 20.2805 16.2846C20.144 16.2628 20.013 16.2142 19.8953 16.1417C16.2676 13.9117 10.7362 13.2656 6.44341 14.5686C6.31118 14.6088 6.17232 14.6225 6.03478 14.6091C5.89724 14.5956 5.76371 14.5551 5.6418 14.49C5.51989 14.4249 5.412 14.3365 5.32428 14.2297C5.23656 14.1229 5.17074 13.9998 5.13057 13.8676C5.0904 13.7354 5.07667 13.5965 5.09016 13.459C5.10365 13.3214 5.14409 13.1879 5.20919 13.066C5.27429 12.9441 5.36276 12.8362 5.46955 12.7485C5.57635 12.6608 5.69938 12.5949 5.83161 12.5548C10.7346 11.0683 16.8293 11.7877 20.9966 14.3484C21.1144 14.4206 21.2168 14.5153 21.298 14.6271C21.3792 14.7389 21.4376 14.8656 21.4698 15C21.502 15.1344 21.5074 15.2738 21.4857 15.4102C21.464 15.5467 21.4156 15.6775 21.3433 15.7953ZM21.4852 11.9676C17.1334 9.38315 9.95566 9.14518 5.80145 10.4064C5.64256 10.4553 5.47558 10.4724 5.31009 10.4566C5.1446 10.4408 4.98386 10.3925 4.83708 10.3144C4.69031 10.2363 4.5604 10.13 4.45481 10.0016C4.34922 9.87324 4.27002 9.72525 4.22177 9.56617C4.17351 9.40708 4.15715 9.24003 4.17361 9.07461C4.19008 8.90918 4.23905 8.74864 4.31772 8.60219C4.39638 8.45573 4.5032 8.32626 4.63203 8.22119C4.76086 8.11612 4.90917 8.03753 5.06845 7.98993C9.83722 6.54219 17.7646 6.82194 22.773 9.79544C23.061 9.96632 23.2694 10.2446 23.3522 10.5691C23.435 10.8936 23.3855 11.2377 23.2146 11.5257C23.0438 11.8137 22.7655 12.022 22.441 12.1049C22.1165 12.1877 21.7724 12.1382 21.4844 11.9673L21.4852 11.9676Z" fill="#003887"/>
</g>
<defs>
<clipPath id="clip0_33303_40">
<rect width="27" height="27" fill="white"/>
</clipPath>
</defs>
</svg>
