<?xml version="1.0" encoding="utf-8"?>
<!-- Generator: Adobe Illustrator 25.2.1, SVG Export Plug-In . SVG Version: 6.00 Build 0)  -->
<svg version="1.1" id="Camada_1" xmlns="http://www.w3.org/2000/svg" xmlns:xlink="http://www.w3.org/1999/xlink" x="0px" y="0px"
	 viewBox="0 0 547 533.3" style="enable-background:new 0 0 547 533.3;" xml:space="preserve">
<style type="text/css">
	.st0{fill:#8D0000;}
</style>
<path class="st0" d="M183,429.4c0,2.2-2.5,4-5.7,4c-3.6,0.3-6.2-1.4-6.2-4c0-2.2,2.5-4,5.7-4C180.1,425.1,183,426.9,183,429.4z
	 M148.7,424.5c-0.8,2.2,1.4,4.7,4.7,5.4c2.9,1.1,6.2,0,6.8-2.2c0.7-2.2-1.4-4.7-4.7-5.7C152.6,421.2,149.4,422.3,148.7,424.5
	L148.7,424.5z M197.4,422.6c-3.2,0.8-5.4,2.9-5.1,5.4c0.3,2.2,3.2,3.6,6.5,2.9c3.2-0.8,5.4-2.9,5.1-5.1
	C203.6,423.7,200.6,422.3,197.4,422.6z M270,0C117,0,0,116.1,0,269.1c0,122.3,77,227,186.9,263.8c14.1,2.5,19.1-6.2,19.1-13.3
	c0-6.8-0.3-44.6-0.3-67.7c0,0-77.2,16.5-93.4-32.9c0,0-12.6-32.1-30.7-40.4c0,0-25.3-17.3,1.8-17c0,0,27.5,2.2,42.6,28.5
	c24.2,42.6,64.6,30.3,80.4,23c2.5-17.6,9.7-29.9,17.6-37.2c-61.6-6.8-123.8-15.8-123.8-121.9c0-30.3,8.4-45.5,26-65
	c-2.9-7.2-12.2-36.7,2.9-74.9c23-7.2,76.1,29.8,76.1,29.8c22.1-6.2,45.8-9.4,69.3-9.4c23.5,0,47.2,3.2,69.3,9.4
	c0,0,53-37.1,76.1-29.8c15.1,38.3,5.7,67.7,2.9,74.9c17.6,19.5,28.5,34.7,28.5,65c0,106.4-65,114.9-126.6,121.9
	c10.1,8.7,18.7,25.3,18.7,51.2c0,37.2-0.3,83.2-0.3,92.2c0,7.2,5.1,15.9,19.1,13.3C472.2,496.1,547,391.4,547,269.1
	C547,116.1,422.9,0,270,0z M107.2,380.4c-1.4,1.1-1.1,3.6,0.8,5.7c1.8,1.8,4.3,2.5,5.7,1.1c1.4-1.1,1.1-3.6-0.8-5.7
	C111.2,379.7,108.6,378.9,107.2,380.4z M95.3,371.4c-0.8,1.4,0.3,3.2,2.5,4.3c1.8,1.1,4,0.8,4.7-0.8c0.8-1.4-0.3-3.2-2.5-4.3
	C97.8,370,96.1,370.3,95.3,371.4z M131,410.7c-1.8,1.4-1.1,4.7,1.4,6.8c2.5,2.5,5.7,2.9,7.2,1.1c1.4-1.4,0.8-4.7-1.4-6.8
	C135.8,409.3,132.4,408.9,131,410.7z M118.4,394.5c-1.8,1.1-1.8,4,0,6.5s4.7,3.6,6.2,2.5c1.8-1.4,1.8-4.3,0-6.8
	C123.1,394.1,120.2,393,118.4,394.5L118.4,394.5z"/>
</svg>
