<?xml version="1.0" encoding="utf-8"?>
<!-- Generator: Adobe Illustrator 25.2.1, SVG Export Plug-In . SVG Version: 6.00 Build 0)  -->
<svg version="1.1" id="Camada_1" xmlns="http://www.w3.org/2000/svg" xmlns:xlink="http://www.w3.org/1999/xlink" x="0px" y="0px"
	 viewBox="0 0 533.3 533.3" style="enable-background:new 0 0 533.3 533.3;" xml:space="preserve">
<style type="text/css">
	.st0{fill:#8D0000;}
</style>
<g>
	<path class="st0" d="M266.7,0c-72.4,0-81.5,0.3-109.9,1.6C128.3,2.9,109,7.4,92,14c-17.5,6.8-32.4,15.9-47.2,30.8
		C29.9,59.6,20.8,74.5,14,92c-6.6,17-11.1,36.3-12.4,64.7C0.3,185.2,0,194.2,0,266.7c0,72.4,0.3,81.5,1.6,109.9
		C2.9,405,7.4,424.4,14,441.3c6.8,17.5,15.9,32.4,30.8,47.2c14.8,14.8,29.7,23.9,47.2,30.8c17,6.6,36.3,11.1,64.7,12.4
		c28.4,1.3,37.5,1.6,109.9,1.6c72.4,0,81.5-0.3,109.9-1.6c28.4-1.3,47.8-5.8,64.7-12.4c17.5-6.8,32.4-15.9,47.2-30.8
		c14.8-14.8,23.9-29.7,30.8-47.2c6.6-17,11.1-36.3,12.4-64.7c1.3-28.4,1.6-37.5,1.6-109.9c0-72.4-0.3-81.5-1.6-109.9
		c-1.3-28.4-5.8-47.8-12.4-64.7c-6.8-17.5-15.9-32.4-30.8-47.2c-14.8-14.8-29.7-23.9-47.2-30.8c-17-6.6-36.3-11.1-64.7-12.4
		C348.2,0.3,339.1,0,266.7,0z M266.7,48c71.2,0,79.6,0.3,107.8,1.6c26,1.2,40.1,5.5,49.5,9.2c12.4,4.8,21.3,10.6,30.7,19.9
		c9.3,9.3,15.1,18.2,19.9,30.7c3.7,9.4,8,23.5,9.2,49.5c1.3,28.1,1.6,36.6,1.6,107.8s-0.3,79.6-1.6,107.8c-1.2,26-5.5,40.1-9.2,49.5
		c-4.8,12.4-10.6,21.3-19.9,30.7c-9.3,9.3-18.2,15.1-30.7,19.9c-9.4,3.7-23.5,8-49.5,9.2c-28.1,1.3-36.5,1.6-107.8,1.6
		s-79.6-0.3-107.8-1.6c-26-1.2-40.1-5.5-49.5-9.2c-12.4-4.8-21.3-10.6-30.7-19.9c-9.3-9.3-15.1-18.2-19.9-30.7
		c-3.7-9.4-8-23.5-9.2-49.5c-1.3-28.1-1.6-36.6-1.6-107.8s0.3-79.6,1.6-107.8c1.2-26,5.5-40.1,9.2-49.5
		c4.8-12.4,10.6-21.3,19.9-30.7c9.3-9.3,18.2-15.1,30.7-19.9c9.4-3.7,23.5-8,49.5-9.2C187,48.3,195.5,48,266.7,48"/>
	<path class="st0" d="M266.7,355.6c-49.1,0-88.9-39.8-88.9-88.9c0-49.1,39.8-88.9,88.9-88.9c49.1,0,88.9,39.8,88.9,88.9
		C355.6,315.8,315.8,355.6,266.7,355.6z M266.7,129.7c-75.6,0-136.9,61.3-136.9,136.9c0,75.6,61.3,136.9,136.9,136.9
		c75.6,0,136.9-61.3,136.9-136.9C403.6,191,342.3,129.7,266.7,129.7 M441,124.3c0,17.7-14.3,32-32,32c-17.7,0-32-14.3-32-32
		c0-17.7,14.3-32,32-32C426.7,92.3,441,106.6,441,124.3"/>
</g>
</svg>
