<?xml version="1.0" encoding="utf-8"?>
<!-- Generator: Adobe Illustrator 25.2.1, SVG Export Plug-In . SVG Version: 6.00 Build 0)  -->
<svg version="1.1" id="Camada_1" xmlns="http://www.w3.org/2000/svg" xmlns:xlink="http://www.w3.org/1999/xlink" x="0px" y="0px"
	 viewBox="0 0 28 28" style="enable-background:new 0 0 28 28;" xml:space="preserve">
<style type="text/css">
	.st0{fill:#FFFFFF;}
	.st1{fill:#003887;}
</style>
<g>
	<rect x="4.7" y="5.7" class="st0" width="19.1" height="16.7"/>
	<g>
		<path class="st1" d="M20.9,9.1c-2.3,0-4.6,0-6.9,0s-4.6,0-6.8,0c-0.4,0-0.4,0-0.4,0.4c0,3.5,0,6.9,0,10.4c0,0.4,0,0.4,0.4,0.4
			c4.6,0,9.1,0,13.7,0c0.4,0,0.4,0,0.4-0.4c0-3.5,0-6.9,0-10.4C21.3,9.1,21.2,9.1,20.9,9.1z M12.2,16.2c-1-0.4-1.9-0.8-2.9-1.3
			C9,14.9,9,14.8,9,14.5c0-0.1,0-0.2,0-0.4c0,0,0-0.1,0.2-0.2c1.1-0.5,2.1-0.9,3.2-1.4c0.2-0.1,0.2,0,0.3,0.2c0,0.1,0,0.2,0,0.3
			c0,0.4,0,0.4-0.4,0.6c-0.6,0.2-1.2,0.5-1.8,0.7c-0.1,0-0.2,0-0.2,0.1s0.1,0.1,0.2,0.1c0.6,0.2,1.2,0.5,1.8,0.7
			c0.3,0.1,0.4,0.3,0.4,0.5v0.1C12.6,16.4,12.6,16.4,12.2,16.2z M14.7,13.2c-0.3,1.1-0.5,2.2-0.8,3.3c0,0.1-0.1,0.3-0.1,0.4
			c-0.1,0.2-0.3,0.3-0.5,0.2c-0.2-0.1-0.2-0.2-0.2-0.4c0.3-1.4,0.7-2.7,1-4.1c0.1-0.2,0.1-0.4,0.2-0.6c0.1-0.2,0.2-0.3,0.4-0.3
			s0.2,0.2,0.2,0.4C14.9,12.4,14.8,12.8,14.7,13.2z M18.6,15c-0.9,0.4-1.8,0.8-2.8,1.2c-0.4,0.2-0.4,0.2-0.4-0.3v-0.1
			c0-0.4,0-0.4,0.4-0.6c0.6-0.2,1.2-0.5,1.8-0.7c0.1,0,0.1,0,0.2-0.1c0-0.1-0.1-0.1-0.2-0.1c-0.6-0.2-1.2-0.5-1.8-0.7
			c-0.4-0.2-0.4-0.2-0.4-0.6c0-0.5,0-0.5,0.5-0.3c1,0.4,1.9,0.8,2.9,1.2c0.2,0.1,0.3,0.2,0.3,0.4c0,0,0,0,0,0.1
			C19.1,14.7,18.9,14.9,18.6,15z"/>
		<path class="st1" d="M18.8,8.5c0.4,0,0.7-0.2,0.7-0.6c0-0.4-0.2-0.7-0.6-0.7s-0.7,0.3-0.7,0.6C18.2,8.2,18.5,8.5,18.8,8.5z"/>
		<path class="st1" d="M17,8.5c0.4,0,0.7-0.3,0.7-0.7c0-0.3-0.3-0.6-0.7-0.6c-0.3,0-0.6,0.3-0.6,0.7C16.4,8.2,16.7,8.5,17,8.5z"/>
		<path class="st1" d="M20.7,7.2c-0.4,0-0.7,0.2-0.7,0.6c0,0.4,0.3,0.7,0.7,0.7c0.3,0,0.6-0.3,0.6-0.6C21.4,7.5,21.1,7.2,20.7,7.2z"
			/>
		<path class="st1" d="M14,0C6.3,0,0,6.3,0,14s6.3,14,14,14s14-6.3,14-14S21.7,0,14,0z M22.3,19.9c0,0.3,0,0.5,0,0.8
			c-0.1,0.4-0.4,0.7-0.8,0.7c-0.9,0.1-1.9,0-2.8,0c-1.6,0-3.2,0-4.7,0l0,0c-2.2,0-4.3,0-6.5,0c-0.3,0-0.6,0-0.9,0
			c-0.6-0.1-0.9-0.4-0.9-1c-0.1-1.3,0-2.7,0-4c0-2.6,0-5.1,0-7.7c0-0.4,0-0.9,0-1.3S6,6.7,6.3,6.6c0.1,0,0.3,0,0.4,0
			c3.8-0.1,7.6-0.1,11.4,0c1.1,0,2.1,0,3.2,0c0.4,0,0.8,0.1,0.9,0.5c0.1,0.2,0.1,0.5,0.1,0.8c0,1.5,0,3,0,4.4
			C22.3,14.9,22.3,17.4,22.3,19.9z"/>
	</g>
</g>
</svg>
