<?xml version="1.0" encoding="utf-8"?>
<!-- Generator: Adobe Illustrator 25.2.1, SVG Export Plug-In . SVG Version: 6.00 Build 0)  -->
<svg version="1.1" id="Camada_1" xmlns="http://www.w3.org/2000/svg" xmlns:xlink="http://www.w3.org/1999/xlink" x="0px" y="0px"
	 viewBox="0 0 28 28" style="enable-background:new 0 0 28 28;" xml:space="preserve">
<style type="text/css">
	.st0{fill:#003887;}
	.st1{fill:#FFFFFF;}
</style>
<g>
	<circle class="st0" cx="14" cy="14" r="14"/>
	<g>
		<path class="st1" d="M7.9,17.4c-0.2,0-0.4,0-0.6,0c-0.3,0-0.5,0-0.8,0c-0.4,0-0.6-0.2-0.6-0.5c0-0.3,0.2-0.5,0.6-0.5
			c0.4,0,0.8,0,1.2,0c0.1,0,0.1,0,0.2,0c0-0.7,0-1.3,0-2c-0.1,0-0.1,0-0.2,0c-0.4,0-0.9,0-1.3,0c-0.4,0-0.6-0.4-0.4-0.7
			c0.1-0.2,0.3-0.2,0.5-0.2c0.4,0,0.8,0,1.3,0c0.1,0,0.1,0,0.2,0c0-0.7,0-1.3,0-2c-0.1,0-0.1,0-0.2,0c-0.4,0-0.9,0-1.3,0
			c-0.4,0-0.6-0.3-0.4-0.7c0.1-0.2,0.3-0.3,0.5-0.3c0.4,0,0.8,0,1.3,0c0.1,0,0.1,0,0.2,0c0-0.1,0-0.1,0-0.2c0-0.7,0-1.5,0-2.2
			c0-0.9,0.6-1.6,1.6-1.6c3.2,0,6.4,0,9.6,0c0.9,0,1.6,0.6,1.6,1.6c0,2.3,0,4.5,0,6.8c0,0.3-0.2,0.5-0.5,0.5c-0.3,0-0.5-0.2-0.5-0.5
			c0-2.3,0-4.5,0-6.8c0-0.4-0.2-0.6-0.6-0.6c-3.2,0-6.4,0-9.6,0c-0.4,0-0.6,0.2-0.6,0.6c0,3.9,0,7.7,0,11.6c0,0.4,0.2,0.6,0.6,0.6
			c3.2,0,6.4,0,9.6,0c0.4,0,0.6-0.2,0.6-0.6c0-0.3,0-0.6,0-0.9c0-0.3,0.2-0.5,0.5-0.5c0.3,0,0.5,0.2,0.5,0.5c0,0.4,0,0.8,0,1.2
			c-0.1,0.7-0.7,1.3-1.4,1.3c-0.1,0-0.1,0-0.2,0c-3.2,0-6.4,0-9.6,0c-0.8,0-1.3-0.4-1.5-1.1c0-0.1,0-0.3,0-0.4c0-0.7,0-1.5,0-2.2
			C7.9,17.6,7.9,17.5,7.9,17.4z"/>
		<path class="st1" d="M12.5,12.7c-1-1.2-0.7-2.7,0.2-3.5c0.9-0.8,2.3-0.8,3.2,0c0.9,0.8,1.3,2.3,0.3,3.4c0.3,0.2,0.6,0.3,0.8,0.6
			c0.5,0.5,0.8,1,0.8,1.7c0,0.3-0.2,0.5-0.5,0.5c-0.3,0-0.5-0.2-0.5-0.5c0-0.7-0.4-1.2-1-1.4c-0.2-0.1-0.3-0.1-0.5-0.1
			c-0.6,0-1.2,0-1.8,0c-0.9,0-1.5,0.5-1.6,1.5c0,0.3-0.2,0.5-0.5,0.5c-0.3,0-0.5-0.2-0.5-0.5c0.1-1,0.6-1.8,1.5-2.2
			C12.4,12.7,12.4,12.7,12.5,12.7z M14.3,12.5c0.8,0,1.5-0.6,1.5-1.5c0-0.8-0.6-1.5-1.5-1.5c-0.8,0-1.5,0.6-1.5,1.5
			C12.8,11.9,13.5,12.5,14.3,12.5z"/>
		<path class="st1" d="M14.3,16.4c1,0,1.9,0,2.9,0c0.3,0,0.5,0.1,0.5,0.4c0.1,0.3-0.1,0.6-0.4,0.6c0,0-0.1,0-0.1,0
			c-1.9,0-3.8,0-5.8,0c-0.4,0-0.6-0.2-0.6-0.5c0-0.2,0.2-0.4,0.4-0.5c0.1,0,0.1,0,0.2,0C12.4,16.4,13.3,16.4,14.3,16.4z"/>
		<path class="st1" d="M14.3,18.4c0.6,0,1.3,0,1.9,0c0.3,0,0.5,0.2,0.5,0.5c0,0.2-0.2,0.4-0.4,0.4c-0.1,0-0.1,0-0.2,0
			c-1.3,0-2.5,0-3.8,0c-0.3,0-0.5-0.2-0.6-0.4c0-0.3,0.2-0.5,0.5-0.5C13,18.4,13.6,18.4,14.3,18.4z"/>
		<path class="st1" d="M19.7,16.9c0-0.3,0.2-0.5,0.5-0.5c0.3,0,0.5,0.2,0.5,0.5c0,0.3-0.2,0.5-0.5,0.5
			C19.9,17.4,19.7,17.2,19.7,16.9z"/>
	</g>
</g>
</svg>
