<?xml version="1.0" encoding="utf-8"?>
<!-- Generator: Adobe Illustrator 25.2.1, SVG Export Plug-In . SVG Version: 6.00 Build 0)  -->
<svg version="1.1" id="Capa_1" xmlns="http://www.w3.org/2000/svg" xmlns:xlink="http://www.w3.org/1999/xlink" x="0px" y="0px"
	 viewBox="0 0 651.3 800" style="enable-background:new 0 0 651.3 800;" xml:space="preserve">
<style type="text/css">
	.st0{fill:#003887;}
</style>
<g>
	<path class="st0" d="M161.3,514.7c0-13.3-9.2-21.2-25.5-21.2c-6.6,0-11.1,0.7-13.5,1.3v42.6c2.8,0.6,6.2,0.8,10.9,0.8
		C150.6,538.2,161.3,529.5,161.3,514.7z"/>
	<path class="st0" d="M262,493.9c-7.3,0-12,0.6-14.8,1.3v94.4c2.8,0.7,7.3,0.7,11.4,0.7c29.5,0.2,48.8-16.1,48.8-50.5
		C307.6,509.8,290,493.9,262,493.9z"/>
	<path class="st0" d="M449.1,0H127.8c-47,0-85.2,38.2-85.2,85.1V400h-8.3C15.4,400,0,415.3,0,434.3v208.1c0,19,15.4,34.3,34.3,34.3
		h8.3v38.2c0,47,38.2,85.1,85.1,85.1h438.4c46.9,0,85.1-38.2,85.1-85.1V201.5L449.1,0z M90,471.9c10.1-1.7,24.2-3,44.1-3
		c20.1,0,34.5,3.8,44.1,11.6c9.2,7.3,15.4,19.3,15.4,33.4c0,14.1-4.7,26.1-13.3,34.3c-11.1,10.5-27.6,15.2-46.9,15.2
		c-4.3,0-8.1-0.2-11.1-0.6v51.6H90V471.9z M566.2,747.9H127.8c-18.2,0-33-14.8-33-33v-38.2h408.7c18.9,0,34.3-15.3,34.3-34.3V434.3
		c0-19-15.4-34.3-34.3-34.3H94.8V85.1c0-18.1,14.8-32.9,33-32.9l301.8-0.3v111.6c0,32.6,26.4,59,59,59l109.3-0.3l1.2,492.7
		C599.1,733.1,584.4,747.9,566.2,747.9z M214.5,613.6V471.9c12-1.9,27.6-3,44.1-3c27.4,0,45.2,4.9,59.1,15.4
		c15,11.1,24.4,28.9,24.4,54.4c0,27.6-10.1,46.7-24,58.4c-15.2,12.6-38.3,18.6-66.6,18.6C234.6,615.7,222.6,614.7,214.5,613.6z
		 M448.1,529.7v26.5h-51.8v58h-32.8V470h88.2v26.8h-55.5v33L448.1,529.7L448.1,529.7z"/>
</g>
</svg>
